<svg id="Capa_1" data-name="Capa 1" xmlns="http://www.w3.org/2000/svg" viewBox="0 0 300 300"><defs><style>.cls-1{fill:#fff;}.cls-2{opacity:0.85;}.cls-3{fill:#e3f6f0;}.cls-4{fill:#f6fcfa;}.cls-5{fill:#d2f0e6;}.cls-6{fill:#a0dfca;}.cls-7{fill:#8dd9bf;}.cls-8{fill:#c1eadc;}.cls-9{fill:#b2e5d4;}.cls-10{fill:#79d2b4;}</style></defs><title>diao</title><g id="Capa_2" data-name="Capa 2"><rect class="cls-1" width="300" height="300"/></g><g class="cls-2"><g class="cls-2"><path class="cls-3" d="M292.75,154.67c.21-4.29.44-8.93.66-13.58l1.39.37a21.74,21.74,0,0,0,.26-5c-.32-3.34-1.08-1.73-1.6-2.22-.35-2.28-.76-4.88-1.11-7.17,0-2.57.16-17.8.45-38,.15-10.11.32-21.48.49-33.14.09-6.36.18-12.81.27-19.2.08-10.33.17-20.57.26-30.52l-38.71-.33-20-.27c-11.62-.16-19.47-.24-21.26-.22-5.76-.09-11.5-.25-17.25-.4A10.09,10.09,0,0,1,195,4.43L195.33,3c13.51.9,16.24-1.28,24.62-1.51,3.06.25,10.6.46,21,.63l17.51.23,39,.19c-.09,18.26-.18,37.82-.27,57.16-.09,13.1-.18,26.05-.26,37.81-.19,23.51-.4,42.24-.73,47.87-.26,3.91-.45,7.84-.65,11.76-.83,2.32-1.71,4.27-2.53,6.22C292.9,160.49,292.83,157.94,292.75,154.67Z"/><path class="cls-4" d="M293.46,134.24c.52.49,1.28-1.12,1.6,2.22a21.74,21.74,0,0,1-.26,5l-1.39-.37C293.43,138.93,293.44,136.4,293.46,134.24Z"/><path class="cls-3" d="M35.46,29.73c-9.95.75-9.41-1.33-.8-2.49l1.38.24Z"/><path class="cls-4" d="M36,27.48c-3.15,1,.85,2.32-5.55,1.93C30.65,28.78,30.11,28.08,36,27.48Z"/><path class="cls-5" d="M37.7,85.89q.19,8.74.4,17.47c.72,6.68,1.41,13,2.13,19.7-.47,1.33-.95,3-1.42,4.71-1.42-3.27-1.7,4.26-3.1,6.06.14,4.74.28,9.48.48,14.23L35,147.77a129.57,129.57,0,0,1,.11-17.33c-.42-5.9-.68-11.39.09-14.08-.21-6.2-.45-12.78-.68-19.34l0-3.26c.65-1.64,1.3-3.28,2-4.91C36.93,87.86,37.29,86.87,37.7,85.89Z"/><path class="cls-3" d="M40.23,123.06c0,2.19.14,4.75.24,6.93-.28,7.53-.51,16.15-1,20.37-.32,17.82-1,35.89-1.63,54.32-.29,9.22-.55,18.52-.7,27.92Q37,239.65,37,246.78v7.15l0,3.59,0,1.8v.49c-.2,1-.41,2.26-.65,3.78l1.9.42,1.14.24.63.12.34.07s.3,0,.5,0l.68,0c7.2.36,14.8.79,23,1.32l-15.66.42-6.4-.17-1.68,0h-.52L40,266l-1.14-.08c-1.53-.09-3.05-.15-4.67-.13,0-1.21-.06-2.39-.17-3.58,0-.6-.12-1.2-.21-1.82l-.07-.47,0-.24a2,2,0,0,1,0-.38l-.17-2.71c.33-24.15,2.26-35.95.68-58.78l0-6.86c1.21-8.37,2.23-13.52,1.52-20.58l-1.09-.28.07-10.47.23,0L35,149.21v-1.44l1.15.29c-.2-4.75-.34-9.49-.48-14.23,1.4-1.8,1.68-9.33,3.1-6.06C39.28,126.08,39.76,124.39,40.23,123.06Z"/><path class="cls-5" d="M35.75,170.37c.71,7.06-.31,12.21-1.52,20.58.11-7.2.27-14,.43-20.86Z"/><path class="cls-5" d="M34.19,197.81c1.58,22.83-.35,34.63-.68,58.78l.17,2.71a2,2,0,0,0,0,.38l0,.24.07.47c.09.62.16,1.22.21,1.82.11,1.19.17,2.37.17,3.58,1.62,0,3.14,0,4.67.13L40,266l.29,0h.52l1.68,0,6.4.17,15.66-.42,3.61,0a29.31,29.31,0,0,0,3.26,1.41c7.14-1.05,15.92-.07,20.8-.73,6.8.28,14,.5,20.79.72,29.2.36,46.41,2.33,70.76,1.85,13.07,1.19,35.71.35,51.7,1.44l11.92.08,5.54-.48,6.49.06,3.63.07,7.34.14.18-9.14q.07-7.53.16-15a5.34,5.34,0,0,0,1.17-1.51l1.35,5.78c-.14,3.21.08,5.81.17,8.72s-.05,5.7-.07,8.55l-.06,5.51-8-.07c-3.1-.11-5.2-.23-9.74-.34l-11.89-.34-7.58,1.34-8.66-.06c-3-1.06-11.47-.42-17.11-1-3.28.09-6.92.19-10.19.22l-12.13-.6c-9.52-.93-10.65-2.21-18.71-1.8-4.61-.32-6.61.42-10.6.45-11.75-.71-8.75.29-12.06.5l-14.08-.09c-7.8-.63-12.49-.66-17.18-.69l-11.91-.08c-.66-.24-1-.53-1.6-.82l-6.93.24-24.11-.45a29.31,29.31,0,0,1-3.26-1.41c-9.3-.4-7.79.76-10.75,1l-6.86,0-1.81,0-5.89-.3-1.47-.07-.33,0-.17,0-.36,0-1.38-.15-7.12-.11.07-5c.3-1.44.61-2.75.92-3.92,0-3.54,0-7.07.07-10.25l.63-17.19.12-17.34c.26-4.62.46-9.27.67-13.93C33.94,199.91,34.06,198.87,34.19,197.81Z"/><path class="cls-5" d="M12.1,225c.05.74.16,1.14.22,1.87.57,9.91.23,17.41.7,24.41l-.91,6.64,0,1.3v1.64l.05,3.24c0,2.05.13,3.89.2,5.72l.26,7.77-.42,10.22,4.33.23c-2.05.64-4.2,1.28-6.51,1.95l-.51-.73c0-8.61-.1-16.66-.18-24.77l.39-17.68c0-2.89-.49-4.47-.76-7.08-.31-6.58.53-9.62,2-15l.28.08Z"/><path class="cls-6" d="M21,140.51c.33,1.9.67,3.79,1.06,5.34.92,10.36,1.41,14.83,1.53,23.18-.64,8.52-.72,12.47-.41,17.26l.52.13-.08,11.91a8.26,8.26,0,0,1-.53,1.67c-.24,6.45-.46,12.53-.7,19-.08,2.88-.21,5.73-.35,8.59.11,1.12.22,2.22.27,3.67l0,3.26.19,14.15a14.42,14.42,0,0,0-1,7.31c.11,1.09.28,2.14.42,3.18a16.94,16.94,0,0,1,.17,3c.24,5.48.09,10.84-.11,15.87,3.17.13,6.08.28,8.58.35l11.9.31,11.91.08c-1.17,1.72,11,.82,15.09,1.77,1.75.25,3.5.43,5.26.62l10.48.06c3-.26,4.27-1.12,8.88-.8,1.31.52,3,.94,4.71,1.41,3.6,0,6.84.05,10.38.36l3.25,0,5.62-.77c3.16.37,6.68.8,10.2,1.17,1.1-.05,2.2-.16,3.31-.27l22.67.44,5.06,0-.36,1.39a79.18,79.18,0,0,0,15.32.91l-.3,1.15-6.91.19c-9.35-.24-11.42.73-15.76.76h-1.8l-6.64-.91c-7.84-.46-11.75.67-17.63,1l-3.61,0-15.29-1-6.87,0c-12.43-.89-16.93-.23-19.2.16-1.79-.07-3.56-.2-5-.32L68.3,285c-6.72-.57-8.57,1-14,1L44,285.4l-2.42-.31c-.44,0-.78-.1-1.31-.15l-1.65-.15L32,284.18a37.68,37.68,0,0,0-5.3.37,32.4,32.4,0,0,1-6.27.15L16,284c.16-1.07.31-2.34.45-3.66.2-5-.09-5.42-.44-5.72s-.79-.4-.89-4.88l.05-8.93-.29-.08.05-7.15c-.64-.89-1.27-1.41-1.9-2.3-.47-7-.13-14.5-.7-24.41l2.25.58c.18-.68.35-1,.53-1.67l.61-4.9c1.49,2.18.64,8.47,1.59,12.33a10.65,10.65,0,0,0,1.38,2.16c.35-1,.76-2,1.12-3.32.08-3.23.21-6.81.35-10,.06-8.3.11-16.24.16-24.55a29.81,29.81,0,0,0-.53-7c-1.5.7-1.64,13-3.35,9.62.78-13.17,1.06-20.7,1-29.39.33-6.78.67-13.56.94-20.37l0-5.42c.47-1.32.94-3,1.42-4.69Z"/><path class="cls-7" d="M73.27,279.76l12.35-.21,6.85.05,3.17.31,12.15.6c3.57.14,8-.12,10.4.35,4.62.27,8.91.47,13.56.67l8.75-.23-2.82-1.69c0-.18.08-.35.13-.52a31.06,31.06,0,0,1-3.25-1.41c1.14-.23,2.26-.39,3.76-.55l6.86,0,8.67.06c1,.29,2,.59,3,.83l16-.13,1.38.24c1.41.13,2.46.25,3.54.31,9.95-.74,14.64-.71,19.34-.68,2.2,1.29,7.28,1.21,10.26.88,3.27,0,6.9-.13,10.19-.22-.29-.35-.91-.7-1.17-1.11.45-.34,1.28-.74,1.73-1.09,4.34,0,8.34-.11,12.35-.2,4.86-.61,8.73-.23,12.48-.73l6.72.56,7-.47,1.61.27L260,276l8.57.07,5.8-.47,1.22.06c.16-3,.19-5.46.27-7.29a12.44,12.44,0,0,1,.58-4l.06-7.93c-.52-1.22-1.09-2.46-1.66-3.68l0-5.42,2,.51c0-1.81,0-3.26,0-5.06-1-2.8-.69-8.86-.71-14.28-.4-.47-.74-1.28-1.14-1.75-.06-3.63-.12-7.28-.17-10.54.11-3.58.2-6.81.3-10.4-.05-.74-.16-1.12-.22-1.87.05-7.21.1-14.79.15-22.38-.27-1.87-.55-3.76-.83-5.64.24-1.38.43-3.14.61-4.9,0-2.9,0-5.77.06-8.66s.21-5.74.35-8.6c.11-4.68.21-9,.32-13.66l1.15.3a45.31,45.31,0,0,1-.09,13.72l1,12.56c.3-2.46.55-4.56.85-7-.75-17.55,1.87-20.86,2.23-39.2.84,3.1.16,9.44.72,12.47-.05,8.68-.11,17.33-.17,26,.11,1.48.21,3.31.26,5.13l2.48.64c.14-3.59.27-6.8.36-10.4-.58-8.82-.45-11.68.37-13.63-.32-4.07-.68-8.5-1-12.57.49-3.85,1.11-1.52,1.65-4.64,0-1.08,0-2.17,0-3.6.16-1.14.54-14.94,1-33.92.23-9.49.49-20.28.76-31.42l.2-8.4c.06-3.23.13-6.46.19-9.69.14-8.25.27-16.47.4-24.47l-30.61-.51L239.35,11c-10.44-.27-17.29-.48-18.08-.58l-10.33-.65c-3.56-.19-6.77-.39-10.32-.64-11.12-.36-21.76,1.65-27.67-.7l7.16-1.06a24.06,24.06,0,0,0,8.87-.8c4.82-.43,3.65-1.48,7.66-1.63,5.75.15,11.49.31,17.25.4l6.58,1.15c-.08.15,1.55.31,4.53.48s7.32.34,12.66.53l18.7.55,2.66.07,4.16.07,9.2.14,19,.28c-.13,9.07-.26,18.39-.39,27.75l-.09,5.85-.09,4.3q-.09,4.29-.18,8.54c-.24,11.33-.47,22.32-.67,32-.41,19.43-.72,33.76-.86,35.51-.7,8.86,1.06,4.61,1.31,10.83.14,3.29.3,7,.45,10.6,0,1.45,0,3.25,0,5-.1,4-.21,8.26-.31,12.22-1.35,2.54-2,4.91-1.74,9.68-.2,3.56-.4,7.13-.65,10.31-.48-1.91-.87-3.49-1.35-5.41l0-5.41c-1.12-5.35-1.77-3-2.47-2.08.08,3.27.15,6.89.22,10.18,0,6.5-.08,13-.12,19.13-.13,1.42-.19,2.13-.31,3.54-.31,2.09-.61,4.54-.86,6.65.14,4.74.59,7.74,1.33,9-.26,3.91-.45,7.83-.66,12.12a48,48,0,0,1,.74,10.32c-.24,2.48-.55,4.55-.85,7,.26,4.05.52,8.09.73,12.13-.19,3.47-.39,7-.58,10.44-.34,9.2,1.24,7.51,1.32,14.83,0,.47,0,1,0,1.47l-14.76-.33a41.24,41.24,0,0,0,5.6-3.55,85.76,85.76,0,0,1-11.08.32c-1.75-.06-3.45-.18-5.12-.35s-3-.4-4.59-.67l-6.86,0c-1.11.1-2.22.16-3.69.26l-10.32-.64-.28,1.09c-3,.21-5.53.37-8.82.52-.13.52-5.46.14-10.18.22-.08.35-.19.75-.28,1.1l-17.48.46-10.25-.93-10.69.79c-5.71-.27-11.45-.48-17.18-.69l-5.06,0-22.67-.44c-1.11.11-2.21.22-3.31.27-3.52-.37-7-.8-10.2-1.17l-5.62.77-3.25,0c-3.54-.31-6.78-.33-10.38-.36-1.7-.47-3.4-.89-4.71-1.41-10.33.8-14.66.77-19.36.74-1.76-.19-3.51-.37-5.26-.62C71,280.26,72.11,280,73.27,279.76Z"/><path class="cls-5" d="M88.45,288.18c4.57-.89,6.63-1.86,11-1.89l6.87,0-.43,1.68c-4.74.14-9.12.28-13.87.48C90.57,288.37,89.52,288.25,88.45,288.18Z"/><path class="cls-8" d="M156.18,287.76l8.66.06,17.47-.41,12.27.08,11.92.08,4.77,2.52,10.76-1c1.56-.45,3.48-.9,5.42-1.35l10.45.07,1.73.3,11.21-.5,5.72-.25,2.88-.12,4-.13c1,.23,1.44.41,2.47.59,6.75.32,13.21.63,20.36.89l2.07-.18c-.36-5-.71-9.57-1.13-14.38.36-2.51.7-5.28,1-8.14.17-1.46.34-2.93.5-4.37l.13-1.1.06-.55,0-.28,0-.19c.09-.49.17-1,.25-1.44l.21,1.4,0,.18,0,.26.05.54.1,1.09q.19,2.21.39,4.38c.28,3,.55,5.93.81,8.72-.18,5.15-.37,10.67-.54,15.86l-3.19-.12-27.58.46-8.67-.06c-1.9.34-3.46.73-5.35,1.07-3.61,0-6.85,0-10.39-.36-3.6-.08-6.81-.22-10.4-.36l-13.66-.32c-5.74-.15-11.49-.31-17.26-.4l-36.53,0a9.63,9.63,0,0,0-1.73-.3Z"/><path class="cls-5" d="M167,286.45l6.91-.19,8.38,1.15-17.47.41C164.67,287.13,168,287,167,286.45Z"/><path class="cls-5" d="M176.45,283.5l10.69-.79,10.25.93,17.48-.46,25.63,1.56a8.44,8.44,0,0,0-1.95.56l-12.34.15c-5.12.2-10.57.34-15.67.47l-15.25-1.19-17.24-.41C176.35,283.85,176.41,283.68,176.45,283.5Z"/><path class="cls-5" d="M210.39,286.5l15.39.62c.66.24,1.34.42,1.67.59-1.94.45-3.86.9-5.42,1.35l-10.76,1-4.77-2.52C208,287.24,209.22,286.84,210.39,286.5Z"/><path class="cls-5" d="M284.55,258.51c-.21-4-.47-8.08-.73-12.13.3-2.46.61-4.53.85-7a48,48,0,0,0-.74-10.32c.21-4.29.4-8.21.66-12.12-.74-1.28-1.19-4.28-1.33-9,.25-2.11.55-4.56.86-6.65.12-1.41.18-2.12.31-3.54l.81.21c2.06,11,1.33,26,.6,40.3q.65,6.14,1.3,12.26c0,7.92-.08,15.39-.12,23.3l-.29-.25c-.36-2.85-.73-5.46-1.09-8-.18-1.23-.36-2.46-.55-3.7l-.27-1.83-.07-.45-.07-.37Z"/><path class="cls-5" d="M271.2,222.14l-.52-.12-.81-8.89c0-2.17,0-4.69.05-6.86.08-3.24-1-1-.45-10.6,0-1.09,0-2.17,0-3.61.11-4,.21-7.91.31-11.86q.45-2.59.91-5.18c0-3.26,0-6.87.06-10.12-.12-7.26-.25-14.18-.44-21.09.27-5.71.48-11.44.7-17.17,0-1.46.16-16.62.46-37,.15-10.21.32-21.74.5-33.52.09-5.65.17-11.36.26-17,.09-3.94.18-7.83.26-11.59L259,27.2,242.45,27c-9.57-.12-15.83-.18-16.74-.14-1.82,0-3.65.15-5.49.25l-29.09-.77.43-1.67,18.84-.17c4.67.15,9.33.3,14,.38.8-.05,7.21,0,17.05.12l17,.22,16,.28c-.16,9.65-.32,19.92-.48,29.93-.16,11.51-.32,22.71-.46,32.61-.26,19.79-.43,34.35-.35,35.57l-.84,5.22q-.11,14.61-.19,29.24c-.19,2.48-.38,4.61-.63,7.07.22,1.14.39,2.27.56,3.39,0,2.53,0,4.7-.05,6.87,0,5.78-.08,11.91-.11,17.32,0,8.32.08,16.29.12,24.63l0,3.25C271.78,222.3,271.49,222.22,271.2,222.14Z"/><path class="cls-7" d="M181.44,23.18l-.35,1.39c-2.94.15-5.87.31-8.81.52L154.94,25,142.89,24c-4.76.25-2.55,1.48-9,1.1-5.34-.33-.32-1.57-6.5-1.43-4.62-.33-7,.35-12.41.43l-.27,1.1c-4,.2-8.06.35-12.07.5l-5.42,0-13.87.49-.06.23-7.08.82c-5.41,0-11.18-.13-15.6.18-1.36-.29-2.37-.59-3.39-.88,2.46-1.09,5.27-2.17,7.71-3.25a10.82,10.82,0,0,0,2.11-1.14c.76-.17,1.17-.34,1.94-.51,1.83-.1,3.31-.21,5.13-.25,3.56.19,6.77.39,10.32.64,1,.36,2,.71,3.32,1.12,4-.2,8-.35,12.06-.5l13.86,1c1.8-1.37,2-2,2.1-2.53,1.49-.16,2.62-.33,3.74-.49,8.58.4,11.86.31,12.56-1,6.68-.65,9.71-1.15,14-1.06,12.26.14,13.3,1.71,18.7,1.8l8.44.92c5,0,10.48.07,15.46.34C186.42,22.12,183.75,22.68,181.44,23.18Z"/><path class="cls-5" d="M172,26.18c-3.6,1.31-10,1-15.74.71-2.45,1.08-7.78.7-10.62.51a141.87,141.87,0,0,1-24.33.42c1.26-.69,2.5-1.32,3.75-1.95l8.67.06L146,26l6.93-.24c.8-.28,1.22-.51,2-.8l17.34.12Z"/><path class="cls-5" d="M130.64,4.29c3.68-.26.31-1.21,10.54-.22C137.56,4.11,134.28,4.2,130.64,4.29Z"/><path class="cls-5" d="M109,28c-8,.4-13.95.83-16.1,2.14-2.18.05-4.73.14-6.93.25l-10.46-.07-.14.52c-5.75-.16-12,.09-14.31.77-6.23.31-8.87-.64-13.5-1a21.63,21.63,0,0,0-3-2.5c5.47-.14,10.56-.28,16-.48l0-.23c4.42-.31,10.19-.22,15.6-.18l7.08-.82,11.91,1.46c6.47.16,1-1.15,7.22-1.33Z"/><path class="cls-3" d="M21.37,116.39c.1,3.28.19,6.91.22,10.54l.86.23c.85,2.75.44-4.24,1.95-4.92l-.06,8.66A32.29,32.29,0,0,1,23.21,136L22,145.85c-.39-1.55-.73-3.44-1.06-5.34l.09-13.72-1.67-.43.07-10.46c-.33-3.7-.56-11.72.38-14,1.06-2.62.77,5.62,1.58,5.84Z"/><path class="cls-3" d="M18.41,144.91l0,5.42c-.27,6.81-.61,13.59-.94,20.37a11,11,0,0,0,.27,1.88l-.7,19c.09,3.64-.95,4.1-.57,8.53a32.29,32.29,0,0,0-1.18,3.31c-1.27-9.73-.93-16.87-.9-29.89l.92-8.43c-.16-2.57-.54-6.65.06-8.67,1.41,4.35.38-6.4,1.15-8.38a44.57,44.57,0,0,1,1.71-4.62Z"/><path class="cls-3" d="M11,224.71c-1.48,5.41-2.32,8.45-2,15,.27,2.61.78,4.19.76,7.08,0-2.89-.49-4.47-.76-7.08C8.63,233.16,9.47,230.12,11,224.71Z"/><path class="cls-3" d="M11.23,224.79l-.28-.08Z"/><path class="cls-3" d="M9.49,289.27,10,290c2.31-.67,4.46-1.31,6.51-1.95l28.49.37c5.11,1.19,17,1.26,22.29.43,7.66-.24,9.61-.74,12.49-.72l8.67.05c1.07.07,2.12.19,3.54.31l28.88,1.58,17.27.35L155.6,290a9.63,9.63,0,0,1,1.73.3l36.53,0c5.77.09,11.52.25,17.26.4l13.66.32c3.59.14,6.8.28,10.4.36,3.54.31,6.78.33,10.39.36,1.89-.34,3.45-.73,5.35-1.07l8.67.06,27.58-.46,3.19.12c.17-5.19.36-10.71.54-15.86-.26-2.79-.53-5.72-.81-8.72q-.19-2.17-.39-4.38l-.1-1.09-.05-.54,0-.26,0-.18-.21-1.4c0-2.91-.13-5.82-.23-8.75,0-4.69.06-9,.09-13.71.65-10.33.73-14.28.4-17.26.06-9.39.12-18.41.19-27.8q.87-5.73,1.75-11.48a112,112,0,0,1,.69,17.55c.44,3,.89,5.64,1.33,9,.08,5.1-.3,11.14.76,15.74-.44,5-2.48-1-2,8.16-.19,3.21.46.85.56,3.4l.12,17.39a45.81,45.81,0,0,1-.86,7c0,4.31,0,8.07-.06,12.9l1.68,1.29c.09-3.11.19-6.23.29-9.27,0-.77,0-1.53.07-2.29,0-.47.05-.94.08-1.4q.08-1.26.15-2.46a9.71,9.71,0,0,1,1.37,2.16c0,7.5,0,12.52-.07,17.51-.48,4.92-.9,9.68-1.44,14.13.05,1.49.09,3,.14,4.52-9.8.24-20.65,0-29.94,0H260.9l-2.45,0c-1.2,0-2.34.07-3.41.14a21.52,21.52,0,0,0-5.33.9c-8.81-.93-17.07.23-24.71,1.8L13,295.8c0-.58-.63-1.1-1.16-1.68,14.91-.59,18.49-1.55,17.6-2.72l-16.71-.35c-1.31.24-2.75.48-4.5.72-.32-1.2-.63-2.79-.92-4.44.67-8.27,1.33-15.49,2-22.83C9.39,272.61,9.47,280.66,9.49,289.27Z"/><path class="cls-3" d="M92.24,266.53c-4.88.66-13.66-.32-20.8.73a29.31,29.31,0,0,1-3.26-1.41C77.11,266.26,81.29,264.09,92.24,266.53Z"/><path class="cls-3" d="M254.75,268.76l2.43-.09,2.5-.06c.86,0,1.77,0,2.73-.05,1.92,0,4,0,6.22.07,0-2.15.08-4.38.07-6.51l0-3.64c0-2.09-.08-4.08-.14-5.92-.9-4.57.56-6,.35-10,.22-3.2.39-5.69.58-8.53,0-.72,0-1.44,0-1.8-.43-4.1-.52-8.82.41-19.06l.81,8.89.52.12c-.09,5.05-.24,10.43-.39,15.46l-.06,8.66q-.08,7.47-.16,15l-.18,9.14-7.34-.14-3.63-.07-6.49-.06-5.54.48-11.92-.08c-16-1.09-38.63-.25-51.7-1.44-24.35.48-41.56-1.49-70.76-1.85,43.64-1,72.24,1.74,115.89.76,3.55.2,10.32-.8,10.39.36C244.7,268.46,249.73,268.61,254.75,268.76Z"/><path class="cls-3" d="M269.92,206.27c.08-3.24-1-1-.45-10.6C268.94,205.29,270,203,269.92,206.27Z"/><path class="cls-3" d="M269.8,180.2c-.1,4-.2,7.89-.31,11.86C269.6,188.09,269.7,184.15,269.8,180.2Z"/><path class="cls-3" d="M220.22,27.08c-21.79.38-31.27,2.05-45.9,2.7-12.81.55-27.25.46-40.07,1.13-6.91.12-11.86-.31-17.2-.64l-24.19-.16c2.15-1.31,8-1.74,16.1-2.14l12.35-.15a141.87,141.87,0,0,0,24.33-.42c2.84.19,8.17.57,10.62-.51,5.7.33,12.14.6,15.74-.71l1.79,0c4.69.08,9,.23,13.65.38,1.11-.11,2.23-.22,3.69-.27Z"/><path class="cls-3" d="M174.18,3.71h-1.81l.5-1.9,8.66.05c3.19.26,5.65.56,8.46.87Z"/><path class="cls-3" d="M85.93,30.36c-3.21-.14-1,1-10.6.45l.14-.52Z"/><path class="cls-8" d="M34,64c1.09.64,2.54,1,3.2,14.92.16,2.21.31,4.79.53,7-.41,1-.77,2-1.12,3-.7,1.63-1.35,3.27-2,4.91-.07-2.92-.15-5.82-.23-8.73C33.89,76.59,33.93,70.45,34,64Z"/><path class="cls-8" d="M34.56,97c.23,6.56.47,13.14.68,19.34-.77,2.69-.51,8.18-.09,14.08.11.38.22,1.14.28,1.52a18.05,18.05,0,0,0,.28,1.87c-.21,4.65-.41,9.3-.67,13.94v1.44c-1.56,8.64-.34,7.87-.3,10.41l-.07,10.47c-.16,6.82-.32,13.66-.43,20.86l0,6.86c-.13,1.06-.25,2.1-.31,3.17-1.23,2.22-.94,10.26-.67,13.93l-.12,17.34c-1,8.42-.77,11-.61,13.58l0,3.61c0,3.18-.05,6.71-.07,10.25-.31,1.17-.62,2.48-.92,3.92l-.78-2.47.14-19,.07-10.46c.2-3.58.39-6.78.65-10.33.4-8.22-.35-9.13-.21-12.34-.22-2.24-.38-4.44-.54-7l.93-8.45c.56-15-.45-28.3.79-41.37l.07-10.48c0-5.78-.1-11.58-.17-17.39.41-2.07.78-4.51,1.2-6.56C33.83,110.93,33.2,101.73,34.56,97Z"/><path class="cls-8" d="M15,206.59c1.26,2.87.58,9.55.72,14.3l-.61,4.9c-.18.68-.35,1-.53,1.67l-2.25-.58c-.06-.73-.17-1.13-.22-1.87C13,218.74,14,212.86,15,206.59Z"/><path class="cls-8" d="M15.16,260.82l-.05,8.93c-.07,2.37-.19,4.75-.32,7.17-.75.26-1.44.48-2.19.68l-.26-7.77c.88-3.13,1.71-6.5,2.53-9.09Z"/><path class="cls-6" d="M30.09,21.36c.17,1.13.33,2.26.5,3.74-.08,3.24-.22,6.82-.36,10,.75-.18,1.51-.71,2.26-.87,0,6.15.9,12.88.17,18.85.2,3.67.47,7.34.73,10.68-.36,2.43-.78,4.49-1.14,6.57,0,6.49-.08,13-.12,19.13.44,11.69.36,23.25.29,34.8.07,5.81.15,11.61.17,17.39l-.07,10.48c-1.24,13.07-.23,26.34-.79,41.37L30.8,202c-1.88,6-1,10.95-.9,15.32-.14,2.49-.27,4.63-.34,7.14-1.39,8.68-.89,12.79-.09,13.71l0,3.62.06,10.32.1,9.05-.6,2.12c-1.09-1.15-1.21-.55-1.39.23a10.53,10.53,0,0,0,.25,3.56,3.15,3.15,0,0,0,.79,1.54c.1.81.17,1.64.24,2.5,2.76-.18,5.49-.24,8.16-.2l2,0,2.32.08c2.18.06,4.29.14,6.25.24,4,.08,8.26.22,12.2.37,5,.38,8.48-.58,10.69-.8,2.86.13,5.72.27,8.6.34,6.51,0,7.28,1.21,15.24,1.2,5.31.44,4.54-.78,7.07-.76,4.68.09,9.34.24,13.63.38l10.35.59c4.39-.21,2.46-1.14,7.14-1l14.08.09,11.91.08c2.49.19,4.61.38,7.07.62l-.21.81c9.23.7,10.2-.28,13.8-.2H181c10.08,1.57,15.73.69,19.13.13,3.27,0,6.91-.13,10.19-.22,5.64.56,14.12-.08,17.11,1l8.66.06,7.08.56,13.73.09,2.67-.11,2-.11,3.94-.23,8.29.59.86-.06-.4-6.14c0-3,0-6,.08-9,.21-2.48.39-4.61.56-6.72.57,1.22,1.14,2.46,1.66,3.68l-.06,7.93a12.44,12.44,0,0,0-.58,4c-.08,1.83-.11,4.27-.27,7.29l-1.22-.06-5.8.47L260,276l-1.77-.27-1.61-.27-7,.47-6.72-.56c-3.75.5-7.62.12-12.48.73-4,.09-8,.18-12.35.2-.45.35-1.28.75-1.73,1.09.26.41.88.76,1.17,1.11-3.29.09-6.92.18-10.19.22-3,.33-8.06.41-10.26-.88-4.7,0-9.39-.06-19.34.68-1.08-.06-2.13-.18-3.54-.31l-1.38-.24-16,.13c-1-.24-2-.54-3-.83l-8.67-.06-6.86,0c-1.5.16-2.62.32-3.76.55-1.06-.13-2.11-.25-3.54-.31l-3-1.12-7.15,1.05L114,276.16,93.4,276l-7,.47c-2.5-.07-4.65-.2-7.14-.33l.06-.23c-3.22-.14-6.8-.28-10-.36l-5.56.48c-2.07-.36-4.5-.72-6.57-1.14l-22.55-.16c-3.05.44-7.07.76-8.13-.07l-1.13,0c.09-3.29.22-6.36.35-9.55-.08-1.78-.07-3.41,0-4.93l.09-2.72.12-2.83c.17-3.76.34-7.51.2-12.25.14-3.23.27-6.8.35-10a35.7,35.7,0,0,0,.64-8.52l-1-10.75c.36-2.08.72-4.52,1.14-6.58l.09-14.08-.8-8.88.9-4.84c.07-2.87.21-5.73.34-8.59.63.53.55-4.19.58-8.53l-.73-12.48q.13-5.93.37-11.84c-.26-4.77.45-6.76.87-10.26l-1-12.56c.06-1.07.19-2.12.31-3.16.93-9.54-.05-10.51.09-14.09v-1.8c.35-.28.7-.92,1.11-1.17l.59-10.33c-2.13-2-.58-9.2-1-14.36,2.53-7.3.12-19.14.21-32.86l-.81-.21c.1-5,.25-10.42.4-15.45Z"/><path class="cls-9" d="M31.34,209c-.14,3.21.61,4.12.21,12.34-.26,3.55-.45,6.75-.65,10.33l-.07,10.46-.14,19,.78,2.47-.07,5,7.12.11,1.38.15.36,0,.17,0,.33,0,1.47.07,5.89.3,1.81,0,6.86,0c6.38.51,9.58.7,12.06.95a8.27,8.27,0,0,1,2-.57l24.11.45,6.5,1.43c-2.53,0-1.76,1.2-7.07.76-8,0-8.73-1.21-15.24-1.2-2.88-.07-5.74-.21-8.6-.34-2.21.22-5.72,1.18-10.69.8-3.94-.15-8.23-.29-12.2-.37-2-.1-4.07-.18-6.25-.24L39,271l-2,0c-2.67,0-5.4,0-8.16.2-.07-.86-.14-1.69-.24-2.5a3.15,3.15,0,0,1-.79-1.54,10.53,10.53,0,0,1-.25-3.56c.18-.78.3-1.38,1.39-.23l.6-2.12-.1-9.05-.06-10.32,0-3.62c-.8-.92-1.3-5,.09-13.71.07-2.51.2-4.65.34-7.14-.09-4.37-1-9.3.9-15.32C31,204.58,31.12,206.78,31.34,209Z"/><polygon class="cls-8" points="38.52 268.71 39.9 268.86 40.26 268.89 40.43 268.91 40.76 268.93 42.23 269 48.13 269.3 42.23 269 40.76 268.93 40.43 268.91 40.26 268.89 39.9 268.86 38.52 268.71"/><path class="cls-8" d="M56.79,269.36c3-.27,1.45-1.43,10.75-1a29.31,29.31,0,0,0,3.26,1.41,8.27,8.27,0,0,0-2,.57C66.37,270.06,63.17,269.87,56.79,269.36Z"/><path class="cls-8" d="M54.3,286c5.43,0,7.28-1.57,14-1l6.93,1.14c1.43.12,3.2.25,5,.32,2.27-.39,6.77-1.05,19.2-.16-4.34,0-6.4,1-11,1.89l-8.67-.05c-2.88,0-4.83.48-12.49.72-1.24-.76-2.87-1.46-4.48-2.22C60,286.43,57.12,286.24,54.3,286Z"/><path class="cls-8" d="M94.91,270.19l6.93-.24c.64.29.94.58,1.6.82-.81.28-1.24.57-2,.85Z"/><path class="cls-9" d="M105.86,288c6-.71,10.58-.39,15.66-.48l.06-.23,3.61,0L132.4,286c5.67.5,14.86-.08,18.86,1.22,4.34,0,6.41-1,15.76-.76.94.52-2.35.68-2.18,1.37l-8.66-.06L155.6,290l-17.46.41-17.27-.35L92,288.49C96.74,288.29,101.12,288.15,105.86,288Z"/><path class="cls-8" d="M106.29,286.33l15.29,1-.06.23c-5.08.09-9.7-.23-15.66.48Z"/><path class="cls-8" d="M146.61,271.63c3.31-.21.31-1.21,12.06-.5,4,0,6-.77,10.6-.45,8.06-.41,9.19.87,18.71,1.8l-7,.47h-1.8c-7.66-1.15-9.31-.35-13.59-.61-2.46-.24-4.58-.43-7.07-.62Z"/><path class="cls-8" d="M240,272.53l3.62,0,11.89.34c4.54.11,6.64.23,9.74.34l8,.07.06-5.51c0-2.85.05-5.7.07-8.55s-.31-5.51-.17-8.72l-1.35-5.78a5.34,5.34,0,0,1-1.17,1.51l.06-8.66c.15-5,.3-10.41.39-15.46.3-.64.59-.92.88-1.57l0-3.25c0-8.34-.08-16.31-.12-24.63,1.08,2.81,1.06,5,1.83,11-.2,3.57-.38,6.77-.59,10.34a14.66,14.66,0,0,1,1.66,2.23c.05,3.26.11,6.91.17,10.54q-.07,10.29-.14,20.58l0,5.42c-.17,2.11-.35,4.24-.56,6.72,0,3-.05,6-.08,9l.4,6.14-.86.06-8.29-.59-3.94.23-2,.11-2.67.11-13.73-.09-7.08-.56C237.63,273.44,238.84,273,240,272.53Z"/><path class="cls-8" d="M285.29,283.78c-.08-7.32-1.66-5.63-1.32-14.83.19-3.48.39-7,.58-10.44l.13.7.07.37.07.45.27,1.83c.19,1.24.37,2.47.55,3.7.36,2.52.73,5.13,1.09,8C286.25,277.15,285.77,280.57,285.29,283.78Z"/><path class="cls-9" d="M273.22,214c.21-3.57.39-6.77.59-10.34-1-3.15-.42-14.57-1.83-11,0-5.41.07-11.54.11-17.32,0-2.17,0-4.34.05-6.87.44-2,1-4.44,1.43-6.49-.46-1.21-.91-2.41-1.36-4q.09-14.62.19-29.24l.84-5.22c-.08-1.22.09-15.78.35-35.57.14-9.9.3-21.1.46-32.61.16-10,.32-20.28.48-29.93l-16-.28-17-.22c-9.84-.11-16.25-.17-17.05-.12-4.68-.08-9.34-.23-14-.38,2.74-.79,5.11-1.58,7.86-2.43l58.8.9c-.18,8.68-.39,18.59-.61,28.61-.2,10.71-.4,21.53-.59,31.29-.33,19.51-.6,34.75-.62,36.2-.3,1.73-.6,3.47-.9,4.83.69,8.84,1,12.21,1.28,16.24-.11,4.68-.21,9-.32,13.66-.14,2.86-.27,5.72-.35,8.6s0,5.76-.06,8.66c-.18,1.76-.37,3.52-.61,4.9.28,1.88.56,3.77.83,5.64-.05,7.59-.1,15.17-.15,22.38.06.75.17,1.13.22,1.87-.1,3.59-.19,6.82-.3,10.4A14.66,14.66,0,0,0,273.22,214Z"/><path class="cls-8" d="M271.58,165.11c.25-2.46.44-4.59.63-7.07.45,1.56.9,2.76,1.36,4-.46,2.05-1,4.45-1.43,6.49C272,167.38,271.8,166.25,271.58,165.11Z"/><path class="cls-8" d="M191.13,26.31c-1.46.05-2.58.16-3.69.27-4.67-.15-9-.3-13.65-.38l-1.79,0,.28-1.09c2.94-.21,5.87-.37,8.81-.52l10.47.07Z"/><path class="cls-8" d="M195,4.43l-15.8,1-5.35-.32.36-1.39,15.81-1c1.79.07,3.57.2,5.34.32Z"/><path class="cls-8" d="M121.31,27.82,109,28l-6.5-1.43c-4.38,1.59-9.72,1.26-12.63,1.3-2-.48-6.29-.79-6.5-1.43l.06-.23,13.87-.49,5.42,0c4-.15,8-.3,12.07-.5,3.54.25,7.11.45,10.31.64C123.81,26.5,122.57,27.13,121.31,27.82Z"/><path class="cls-8" d="M46.13,16.45c2.42,1.81-6.06,2.45-4.63,3.9a14.42,14.42,0,0,1-1.94.51h-1.8L31,20.28c-15.86-.22-7.75-2.19-9.46-4,3.37-.44,6-.88,9-1.33l5.06,1.42,8.66.06Z"/><path class="cls-8" d="M33.4,11.11,25,10.24c.89-.63-1.06-1.51,7.37-1.91C36.3,9.68,40,11,33.4,11.11Z"/><path class="cls-6" d="M210.54,285.92c5.1-.13,10.55-.27,15.67-.47l12.34-.15-.65,2.48-10.45-.07c-.33-.17-1-.35-1.67-.59l-15.39-.62Z"/><path class="cls-6" d="M215.15,282.08c4.72-.08,10,.3,10.18-.22,3.29-.15,5.87-.31,8.82-.52,8.53.58,11.91.08,10.6-.45,1.47-.1,2.58-.16,3.69-.26l6.86,0c1.57.27,3,.49,4.59.67s3.37.29,5.12.35a85.76,85.76,0,0,0,11.08-.32,41.24,41.24,0,0,1-5.6,3.55l-6.59,0-23.4-.14-25.63-1.56C215,282.83,215.07,282.43,215.15,282.08Z"/><path class="cls-6" d="M287,273.79c0-7.91.08-15.38.12-23.3a6.09,6.09,0,0,0,1.92-1.31c.1,2.93.19,5.84.23,8.75-.08.47-.16.95-.25,1.44l0,.19,0,.28-.06.55-.13,1.1c-.16,1.44-.33,2.91-.5,4.37-.34,2.86-.68,5.63-1,8.14Z"/><path class="cls-6" d="M274.91,247.34q.07-10.29.14-20.58c.4.47.74,1.28,1.14,1.75,0,5.42-.31,11.48.71,14.28,0,1.8,0,3.25,0,5.06Z"/><path class="cls-9" d="M287.14,250.49q-.64-6.12-1.3-12.26c.73-14.27,1.46-29.28-.6-40.3l-.81-.21c0-6.14.08-12.63.12-19.13l1.1.28,1.12-3c.48,1.92.87,3.5,1.35,5.41.25-3.18.45-6.75.65-10.31l2.48.64c-.27-3.32-.53-7-.74-10.32.1-4,.21-8.25.31-12.22.68,2,1.3,4,1.93,5.57.08,3.27.15,5.82.23,8.73-.49,3.14-1,5.54-1.44,8.32l-.05,7.21q-.89,5.74-1.75,11.48l-.81-.21c-.3,10.77-.65,19.37-.18,27.8l.8.21c.33,3,.25,6.93-.4,17.26,0,4.69-.06,9-.09,13.71A6.09,6.09,0,0,1,287.14,250.49Z"/><path class="cls-6" d="M288.75,218c-.47-8.43-.12-17,.18-27.8l.81.21c-.07,9.39-.13,18.41-.19,27.8Z"/><path class="cls-6" d="M284.59,216.93c-.74-1.28-1.19-4.28-1.33-9,.25-2.11.55-4.56.86-6.65-.31,2.09-.61,4.54-.86,6.65C283.4,212.65,283.85,215.65,284.59,216.93Z"/><path class="cls-6" d="M284.55,178.59c-.07-3.29-.14-6.91-.22-10.18.7-.91,1.35-3.27,2.47,2.08l0,5.41-1.12,3Z"/><path class="cls-10" d="M276.68,154.13a45.31,45.31,0,0,0,.09-13.72c0-5.41.07-10.47.11-15.88.05-2.17,1.3-69.06,2.15-103.56-33.41-.43-50.52-.75-51.61-.78L218.26,22l-7.08-.57-22.45.09c-5-.27-10.41-.31-15.46-.34l-8.44-.92c-5.4-.09-6.44-1.66-18.7-1.8-4.31-.09-7.34.41-14,1.06-.7,1.33-4,1.42-12.56,1-1.12.16-2.25.33-3.74.49-.15.58-.3,1.16-2.1,2.53l-13.86-1c-4,.15-8,.3-12.06.5-1.33-.41-2.33-.76-3.32-1.12-3.55-.25-6.76-.45-10.32-.64L80,19.74l12.28-1.31c2.82-1.13,11.77-2.17,6.33-3.54L102.36,13A28.35,28.35,0,0,1,97.79,11l-3.6,0c-1.61-.76-2.86-1.52-4.47-2.28l9-1,3.53-1.08c2.62-.39,4.89-.72,7.5-1,4.73-.08,9.08-.17,13.79-.2,1.14-.22,2.27-.38,3.77-.55l3.38-.5L138.88,6l1.74.3,12.48-.73,20.72-.44,5.35.32L189,6.59a24.06,24.06,0,0,1-8.87.8L173,8.45c5.91,2.35,16.55.34,27.67.7,3.55.25,6.76.45,10.32.64l10.33.65c.79.1,7.64.31,18.08.58l18.06.45L288,12c-.13,8-.26,16.22-.4,24.47-.06,3.23-.13,6.46-.19,9.69l-.2,8.4c-.27,11.14-.53,21.93-.76,31.42-.47,19-.85,32.78-1,33.92,0,1.43,0,2.52,0,3.6-.54,3.12-1.16.79-1.65,4.64.33,4.07.69,8.5,1,12.57-.82,1.95-.95,4.81-.37,13.63-.09,3.6-.22,6.81-.36,10.4l-2.48-.64c0-1.82-.15-3.65-.26-5.13.06-8.67.12-17.32.17-26-.56-3,.12-9.37-.72-12.47-.36,18.34-3,21.65-2.23,39.2-.3,2.45-.55,4.55-.85,7Z"/><path class="cls-6" d="M288.77,171c-.26-4.77.39-7.14,1.74-9.68.21,3.31.47,7,.74,10.32Z"/><path class="cls-6" d="M290.82,149.1c0-1.8,0-3.6,0-5-.15-3.65-.31-7.31-.45-10.6-.25-6.22-2-2-1.31-10.83.14-1.75.45-16.08.86-35.51.2-9.72.43-20.71.67-32q.09-4.24.18-8.54l.09-4.3.09-5.85c.13-9.36.26-18.68.39-27.75l-19-.28-9.2-.14L259,8.14l-2.66-.07-18.7-.55C232.32,7.33,228,7.16,225,7s-4.61-.33-4.53-.48l-6.58-1.15c1.79,0,9.64.06,21.26.22l20,.27,38.71.33c-.09,10-.18,20.19-.26,30.52-.09,6.39-.18,12.84-.27,19.2-.17,11.66-.34,23-.49,33.14-.29,20.23-.48,35.46-.45,38,.35,2.29.76,4.89,1.11,7.17,0,2.16,0,4.69,0,6.85-.22,4.65-.45,9.29-.66,13.58C292.12,153.06,291.5,151.08,290.82,149.1Z"/><path class="cls-6" d="M275.62,140.11c-.32-4-.59-7.4-1.28-16.24.3-1.36.6-3.1.9-4.83.5,1.94,1.07,3.9,1.64,5.49,0,5.41-.07,10.47-.11,15.88Z"/><path class="cls-6" d="M218.26,22c-2.75.85-5.12,1.64-7.86,2.43l-18.84.17-10.47-.07.35-1.39c2.31-.5,5-1.06,7.29-1.62l22.45-.09Z"/><path class="cls-6" d="M140.62,6.27,138.88,6,127.26,4.79l3.38-.5c3.64-.09,6.92-.18,10.54-.22,1.07.07,2.12.19,3.53.32A41.19,41.19,0,0,0,140.62,6.27Z"/><path class="cls-6" d="M133.73,25.93l-8.67-.06c-3.2-.19-6.77-.39-10.31-.64l.27-1.1c5.44-.08,7.79-.76,12.41-.43,6.18-.14,1.16,1.1,6.5,1.43C133.86,25.36,133.8,25.64,133.73,25.93Z"/><path class="cls-7" d="M102.2,6.59,98.67,7.67l-9,1c1.61.76,2.86,1.52,4.47,2.28l3.6,0A28.35,28.35,0,0,0,102.36,13L98.6,14.89c5.44,1.37-3.51,2.41-6.33,3.54L80,19.74c-1.43-1.46-4.26-1.71-3-2.22,1.12-.11,2.23-.21,3.69-.26,12.78-.5,8.35-1.56,14.29-2.1l-12.06-.95c-1.37-.3-3.11-.54-4.85-.84l.23-.87,14.07-1.29L78.6,11.12A6,6,0,0,0,77.3,9.2L67.05,8.27,48.28,8.14a26.94,26.94,0,0,1-3.4-.83C49.68,5.49,59.7,5.91,73,6.11l8.74-.23C84.93,6.25,88.43,6.67,92,7L95.49,6a6.67,6.67,0,0,0-1.6-.82c5.4.09,10.43.24,15.81.39C107.09,5.87,104.82,6.2,102.2,6.59Z"/><path class="cls-6" d="M80.64,17.26c-1.46,0-2.57.15-3.69.26l-8.67-.05c1-.87,1.52-1.67,2.46-2.47,3.73-.5,1.84-1.55,7.28-1.63,1.74.3,3.48.54,4.85.84l12.06.95C89,15.7,93.42,16.76,80.64,17.26Z"/><path class="cls-6" d="M92,7c-3.53-.37-7-.79-10.19-1.16l12.12-.73a6.67,6.67,0,0,1,1.6.82Z"/><path class="cls-6" d="M92.32,11.21,78.25,12.5c-1-.24-2-.53-3.41-.83-10.17-1.22-12.85.78-20.72.44-1.2.46-2.39.85-4,1.36l-17.39.12a12.55,12.55,0,0,0,2.3-1.89L49,10.92c-.12-.92-.6-1.85-.72-2.78l18.77.13L77.3,9.2a6,6,0,0,1,1.3,1.92Z"/><path class="cls-6" d="M57.26,26.53c1,.29,2,.59,3.39.88l0,.23c-5.48.2-10.57.34-16,.48L36,27.48l-1.38-.24c1.36-1,2.7-2.06,4-3,2.51.07,4.64.2,6.79.33L65,23.28C62.53,24.36,59.72,25.44,57.26,26.53Z"/><path class="cls-9" d="M80,19.74l-5.84,1.64c-1.82,0-3.3.15-5.13.25-.77.17-1.18.34-1.94.51A10.82,10.82,0,0,1,65,23.28L45.49,24.54c-2.15-.13-4.28-.26-6.79-.33a12.1,12.1,0,0,0-.94-3.36h1.8a14.42,14.42,0,0,0,1.94-.51c-1.43-1.45,7-2.09,4.63-3.9H44.32l-8.66-.06L30.6,15a10.51,10.51,0,0,0,2.16-1.37l17.39-.12c1.58-.51,2.77-.9,4-1.36,7.87.34,10.55-1.66,20.72-.44,1.38.3,2.39.59,3.41.83l-.23.87c-5.44.08-3.55,1.13-7.28,1.63-.94.8-1.5,1.6-2.46,2.47l8.67.05C75.73,18,78.56,18.28,80,19.74Z"/><path class="cls-6" d="M51.81,14c2.17,1.46.92,2.09-5.68,2.45H44.32l.42-1.62A46.55,46.55,0,0,1,51.81,14Z"/><path class="cls-9" d="M34,64c.13,6.9.26,14.16.38,21.07.08,2.91.16,5.81.23,8.73l0,3.26c-1.36,4.71-.73,13.91-.94,20.73-.42,2-.79,4.49-1.2,6.56.07-11.55.15-23.11-.29-34.8,0-6.13.08-12.64.12-19.13.36-2.08.78-4.14,1.14-6.57C33.57,63.85,33.74,63.89,34,64Z"/><path class="cls-9" d="M21.07,126.79,21,140.51l-1.15-.29c-.48,1.69-.95,3.37-1.42,4.69l-.22-1.5c.46-.24.21-5.73.9-13.87.06-1.07.19-2.11.31-3.18Z"/><path class="cls-9" d="M32.59,141.7l-.07,10.48Z"/><path class="cls-9" d="M20.15,222c-.14,3.22-.27,6.8-.35,10-.36,1.36-.77,2.34-1.12,3.32a10.65,10.65,0,0,1-1.38-2.16c-.95-3.86-.1-10.15-1.59-12.33-.14-4.75.54-11.43-.72-14.3l.26-3.19a32.29,32.29,0,0,1,1.18-3.31c1.71,3.34,1.85-8.92,3.35-9.62a29.81,29.81,0,0,1,.53,7C20.26,205.79,20.21,213.73,20.15,222Z"/><path class="cls-9" d="M14.92,253.59l-.05,7.15c-.82,2.59-1.65,6-2.53,9.09-.07-1.83-.15-3.67-.2-5.72l-.05-3.24v-1.64l0-1.3.91-6.64C13.65,252.18,14.28,252.7,14.92,253.59Z"/><path class="cls-9" d="M20.44,284.7a32.4,32.4,0,0,0,6.27-.15,37.68,37.68,0,0,1,5.3-.37l6.57.61,1.65.15c.53.05.87.1,1.31.15l2.42.31L54.3,286c2.82.25,5.67.44,8.51.64,1.61.76,3.24,1.46,4.48,2.22-5.27.83-17.18.76-22.29-.43l-28.49-.37-4.33-.23.42-10.22c.75-.2,1.44-.42,2.19-.68.13-2.42.25-4.8.32-7.17.1,4.48.53,4.58.89,4.88s.64.73.44,5.72c-.14,1.32-.29,2.59-.45,3.66Z"/><path class="cls-9" d="M176.45,283.5c.66.24,1,.53,1.6.82l17.24.41c.4-.12,1.15-.17,1.89-.28l13.36,1.47-.15.58c-1.17.34-2.35.74-3.89,1.07l-11.92-.08-12.27-.08-8.38-1.15.3-1.15a79.18,79.18,0,0,1-15.32-.91l.36-1.39C165,283,170.74,283.23,176.45,283.5Z"/><path class="cls-9" d="M165.59,272.33,181,273h-1.8c-3.6-.08-4.57.9-13.8.2Z"/><path class="cls-9" d="M238.55,285.3a8.44,8.44,0,0,1,1.95-.56l23.4.14,6.59,0,14.76.33c0-.52,0-1,0-1.47.48-3.21,1-6.63,1.44-10.24l.29.25.23.21c.42,4.81.77,9.34,1.13,14.38l-2.07.18c-7.15-.26-13.61-.57-20.36-.89-1-.18-1.5-.36-2.47-.59l-4,.13-2.88.12-5.72.25-11.21.5-1.73-.3Z"/><path class="cls-9" d="M189,6.59l-9.81-1.17,15.8-1a10.09,10.09,0,0,0,1.67.53C192.63,5.11,193.8,6.16,189,6.59Z"/><path class="cls-9" d="M173.82,5.1l-20.72.44c-2.42-.42-4.5-.78-6.94-1.14l26.21-.7h1.81Z"/><path class="cls-9" d="M152.93,25.77,146,26l-12.27-.08c.07-.29.13-.57.2-.8,6.41.38,4.2-.85,9-1.1l12.05.94C154.15,25.26,153.73,25.49,152.93,25.77Z"/><path class="cls-9" d="M49,10.92l-13.94.78a5.84,5.84,0,0,0-1.66-.59C40,11,36.3,9.68,32.32,8.33c4.42-.32,8.5-.7,12.56-1a26.94,26.94,0,0,0,3.4.83C48.4,9.07,48.88,10,49,10.92Z"/><path class="cls-7" d="M29.12,36.66c-.09,13.72,2.32,25.56-.21,32.86.42,5.16-1.13,12.36,1,14.36a11.55,11.55,0,0,1,.28,1.88l-.87,8.45c-.41.25-.76.89-1.11,1.17v1.8c-.14,3.58.84,4.55-.09,14.09-.12,1-.25,2.09-.31,3.16l1,12.56c-.42,3.5-1.13,5.49-.87,10.26q-.23,5.91-.37,11.84l.73,12.48c0,4.34.05,9.06-.58,8.53-.13,2.86-.27,5.72-.34,8.59l-.9,4.84.8,8.88-.09,14.08c-.42,2.06-.78,4.5-1.14,6.58l1,10.75a35.7,35.7,0,0,1-.64,8.52c-.08,3.23-.21,6.8-.35,10,.14,4.74,0,8.49-.2,12.25l-.12,2.83-.09,2.72c-.05,1.52-.06,3.15,0,4.93-.13,3.19-.26,6.26-.35,9.55l1.13,0c1.06.83,5.08.51,8.13.07l22.55.16c2.07.42,4.5.78,6.57,1.14-5.47,1.59-15,.83-22.68,1l-9.61.16L23,277l.06-2.46a20.39,20.39,0,0,0-.15-5.48,32.57,32.57,0,0,1-.28-6.82l-.58,0a16.94,16.94,0,0,0-.17-3c-.14-1-.31-2.09-.42-3.18a14.42,14.42,0,0,1,1-7.31c.16,2.94.31,5.87.52,8.81l1.71-13.65-.4-17.46-2,4.89c-.05-1.45-.16-2.55-.27-3.67.14-2.86.27-5.71.35-8.59.24-6.46.46-12.54.7-19a8.26,8.26,0,0,0,.53-1.67l.08-11.91-.52-.13c-.31-4.79-.23-8.74.41-17.26-.12-8.35-.61-12.82-1.53-23.18L23.21,136a32.29,32.29,0,0,0,1.13-5.14l.06-8.66c.18-1,.36-2.09.59-3.11l.08-12.27c.56-5.64,1.18-11.28,1.79-16.9-.05-9,.3-19.46-.1-27.87,1-4.8.4-16.53,1.55-25.64Z"/><path class="cls-10" d="M22.66,262.21a32.57,32.57,0,0,0,.28,6.82,20.39,20.39,0,0,1,.15,5.48L23,277l8.41.25,9.61-.16c7.64-.18,17.21.58,22.68-1l5.56-.48c3.23.08,6.81.22,10,.36l-.06.23c2.49.13,4.64.26,7.14.33,2,.59,4.41,1.13,6.43,1.72,8.22-1,20.14-1,20.59.14,2.6-.28,4.83-.55,7.43-.76,3.27-.1,6.91-.19,10.17-.22,1.43.06,2.48.18,3.54.31a31.06,31.06,0,0,0,3.25,1.41c-.05.17-.09.34-.13.52l2.82,1.69-8.75.23c-4.65-.2-8.94-.4-13.56-.67-2.41-.47-6.83-.21-10.4-.35l-12.15-.6-3.17-.31-6.85-.05-12.35.21c-1.16.28-2.3.5-3.82.78-4.1-1-16.26-.05-15.09-1.77l-11.91-.08-11.9-.31c-2.5-.07-5.41-.22-8.58-.35.2-5,.35-10.39.11-15.87Z"/><path class="cls-7" d="M93.4,276l20.58.14,6.93,1.14,3.54-1.08,3.61,0,3,1.12c-3.26,0-6.9.12-10.17.22-2.6.21-4.83.48-7.43.76-.45-1.1-12.37-1.18-20.59-.14-2-.59-4.4-1.13-6.43-1.72Z"/><path class="cls-7" d="M275.24,119c0-1.45.29-16.69.62-36.2.19-9.76.39-20.58.59-31.29.22-10,.43-19.93.61-28.61l-58.8-.9-7.08-.57c4.35-1.41,11.42-.79,16.24-1.28,1.09,0,18.2.35,51.61.78-.85,34.5-2.1,101.39-2.15,103.56C276.31,122.94,275.74,121,275.24,119Z"/><path class="cls-7" d="M140.62,6.27,138.88,6l5.83-1.58h1.45c2.44.36,4.52.72,6.94,1.14Z"/><path class="cls-10" d="M27.28,149c-.19,2.85-.38,5.69-.63,8.52.18,8-.26,12.59-1.48,13.72a14.21,14.21,0,0,0-.51-1.93L26,140Z"/><path class="cls-10" d="M24.69,243.82,23,257.47c-.21-2.94-.36-5.87-.52-8.81l-.19-14.15,0-3.26,2-4.89Z"/><path class="cls-10" d="M234.43,280.25a11.91,11.91,0,0,0,1.88-.28l8.44.92c1.31.53-2.07,1-10.6.45Z"/><path class="cls-10" d="M276.73,182c.24-1.74.43-3.5.61-5.27,1.37,2.89.34,10.58,1,14.36l-1.11,3C277.08,190,276.93,186,276.73,182Z"/><path class="cls-5" d="M35,149.21,35,159.67l-.23,0C34.69,157.08,33.47,157.85,35,149.21Z"/><path class="cls-5" d="M35,147.77v0Z"/><path class="cls-3" d="M269.8,180.2c-1.05-6.42,0-18.8-.64-24.4-.51-1.57-.15-4.74.65-12.12-.23-8-1.11-14.75-.7-24.42.13-.84.52-14.67,1-33.65.24-9.5.52-20.28.8-31.37.07-2.77.14-5.57.21-8.36l.11-4.2.05-1.75.05-1.27c.14-3.53.28-7,.42-10.43l-12.49-.49-16.5-.42c-9.57-.25-16-.43-17.07-.49.91,0,7.17,0,16.74.14L259,27.2l13.49.29c-.08,3.76-.17,7.65-.26,11.59-.09,5.64-.17,11.35-.26,17-.18,11.78-.35,23.31-.5,33.52-.3,20.42-.51,35.58-.46,37-.22,5.73-.43,11.46-.7,17.17.19,6.91.32,13.83.44,21.09,0,3.25,0,6.86-.06,10.12Q270.25,177.6,269.8,180.2Z"/><path class="cls-9" d="M101.41,271.62c.79-.28,1.22-.57,2-.85l11.91.08c4.69,0,9.38.06,17.18.69-4.68-.09-2.75.84-7.14,1L115,272C110.75,271.86,106.09,271.71,101.41,271.62Z"/><path class="cls-9" d="M155.6,290a9.63,9.63,0,0,1,1.73.3A9.63,9.63,0,0,0,155.6,290Z"/><path class="cls-9" d="M181,273l7-.47,12.13.6C196.71,273.64,191.06,274.52,181,273Z"/></g></g><path d="M142.27,125.43A21.25,21.25,0,0,1,141,133a16.24,16.24,0,0,1-3.52,5.7,15.17,15.17,0,0,1-5.45,3.6,18.82,18.82,0,0,1-7,1.26H111.83V107.37H125a19,19,0,0,1,7,1.25,15.44,15.44,0,0,1,5.45,3.6,16.33,16.33,0,0,1,3.52,5.7A21.2,21.2,0,0,1,142.27,125.43Zm-2.71,0a20.08,20.08,0,0,0-1.05-6.74,14.12,14.12,0,0,0-2.95-5,12.65,12.65,0,0,0-4.59-3.12,16,16,0,0,0-6-1.07H114.46v31.92H125a15.8,15.8,0,0,0,6-1.08,12.41,12.41,0,0,0,4.59-3.12,14.16,14.16,0,0,0,2.95-5A20.28,20.28,0,0,0,139.56,125.43Z"/><path d="M154.25,143.53h-2.63V107.37h2.63Z"/><path d="M193.17,143.53h-2a.9.9,0,0,1-.59-.2,1.19,1.19,0,0,1-.35-.49l-4.27-10.51H168.18l-4.24,10.51a1.11,1.11,0,0,1-.36.48,1,1,0,0,1-.62.21h-2l14.8-36.16h2.6ZM169,130.39h16.2l-7.38-18.27c-.12-.29-.24-.62-.36-1s-.24-.76-.36-1.17q-.18.61-.36,1.17c-.12.36-.24.7-.36,1Z"/><path d="M115.53,186.53h-2a.85.85,0,0,1-.58-.2,1.12,1.12,0,0,1-.36-.49l-4.27-10.51H90.54L86.3,185.84a1.11,1.11,0,0,1-.36.48.92.92,0,0,1-.61.21h-2l14.8-36.16h2.61Zm-24.2-13.14h16.2l-7.38-18.27c-.12-.29-.24-.62-.36-1s-.24-.76-.36-1.17l-.35,1.17c-.12.36-.24.7-.36,1Z"/><path d="M165.78,168.43a21.48,21.48,0,0,1-1.25,7.54,16.35,16.35,0,0,1-3.53,5.7,15.14,15.14,0,0,1-5.44,3.6,18.88,18.88,0,0,1-7,1.26H135.35V150.37h13.18a19.08,19.08,0,0,1,7,1.25,15.4,15.4,0,0,1,5.44,3.6,16.35,16.35,0,0,1,3.53,5.7A21.43,21.43,0,0,1,165.78,168.43Zm-2.71,0a20.34,20.34,0,0,0-1-6.74,14.14,14.14,0,0,0-3-5,12.61,12.61,0,0,0-4.58-3.12,16,16,0,0,0-6-1.07H138v31.92h10.55a15.85,15.85,0,0,0,6-1.08,12.37,12.37,0,0,0,4.58-3.12,14.18,14.18,0,0,0,3-5A20.54,20.54,0,0,0,163.07,168.43Z"/><path d="M177.77,186.53h-2.64V150.37h2.64Z"/><path d="M216.68,186.53h-2a.88.88,0,0,1-.59-.2,1.21,1.21,0,0,1-.36-.49l-4.27-10.51H191.69l-4.24,10.51a1.11,1.11,0,0,1-.36.48.92.92,0,0,1-.61.21h-2l14.79-36.16h2.61Zm-24.19-13.14h16.2l-7.39-18.27c-.12-.29-.24-.62-.36-1s-.23-.76-.35-1.17q-.18.61-.36,1.17c-.12.36-.24.7-.36,1Z"/></svg>