<?xml version="1.0" encoding="utf-8"?>
<!-- Generator: Adobe Illustrator 22.0.1, SVG Export Plug-In . SVG Version: 6.00 Build 0)  -->
<svg version="1.1" id="Capa_1" xmlns="http://www.w3.org/2000/svg" xmlns:xlink="http://www.w3.org/1999/xlink" x="0px" y="0px"
	 viewBox="0 0 300 300" style="enable-background:new 0 0 300 300;" xml:space="preserve">
<style type="text/css">
	.st0{fill:none;stroke:#00C4A9;stroke-width:6;stroke-miterlimit:10;}
</style>
<rect x="21" y="21" class="st0" width="258" height="258"/>
<g>
	<path d="M105.1,104.7c0,4-0.6,7.6-1.8,10.8c-1.2,3.2-2.9,5.9-5,8.1c-2.2,2.2-4.8,4-7.8,5.1c-3,1.2-6.4,1.8-10,1.8H61.7V78.9h18.8
		c3.7,0,7,0.6,10,1.8c3,1.2,5.6,2.9,7.8,5.1c2.2,2.2,3.8,5,5,8.1C104.5,97.2,105.1,100.8,105.1,104.7z M101.3,104.7
		c0-3.6-0.5-6.8-1.5-9.6c-1-2.8-2.4-5.2-4.2-7.2c-1.8-1.9-4-3.4-6.6-4.5c-2.6-1-5.4-1.5-8.5-1.5H65.4v45.6h15.1c3.1,0,6-0.5,8.5-1.5
		c2.6-1,4.7-2.5,6.6-4.5c1.8-1.9,3.2-4.3,4.2-7.2C100.8,111.6,101.3,108.3,101.3,104.7z"/>
	<path d="M118.4,130.6h-2.6V94.4h2.6V130.6z"/>
	<path d="M157.3,130.6h-2c-0.2,0-0.4-0.1-0.6-0.2c-0.2-0.1-0.3-0.3-0.4-0.5l-4.3-10.5h-17.8l-4.2,10.5c-0.1,0.2-0.2,0.3-0.4,0.5
		c-0.2,0.1-0.4,0.2-0.6,0.2h-2l14.8-36.2h2.6L157.3,130.6z M133.1,117.4h16.2L142,99.2c-0.1-0.3-0.2-0.6-0.4-1
		c-0.1-0.4-0.2-0.8-0.4-1.2c-0.1,0.4-0.2,0.8-0.4,1.2s-0.2,0.7-0.4,1L133.1,117.4z"/>
	<path d="M166.4,114.2v16.4h-2.6V94.4h9.2c4.2,0,7.3,0.8,9.4,2.4c2.1,1.6,3.1,4,3.1,7.1c0,1.4-0.2,2.6-0.7,3.8
		c-0.5,1.1-1.2,2.1-2.1,3s-2,1.6-3.2,2.1s-2.7,0.9-4.3,1.1c0.4,0.3,0.8,0.6,1.1,1l12.4,15.6h-2.3c-0.3,0-0.5-0.1-0.7-0.2
		c-0.2-0.1-0.4-0.3-0.6-0.5l-11.6-14.7c-0.3-0.4-0.6-0.6-0.9-0.8s-0.8-0.2-1.5-0.2H166.4z M166.4,112.3h6.3c1.6,0,3-0.2,4.3-0.6
		c1.3-0.4,2.3-0.9,3.2-1.6c0.9-0.7,1.5-1.6,2-2.6c0.5-1,0.7-2.1,0.7-3.4c0-2.6-0.8-4.5-2.5-5.7c-1.7-1.2-4.1-1.9-7.4-1.9h-6.6V112.3
		z"/>
	<path d="M198.9,130.6h-2.6V94.4h2.6V130.6z"/>
	<path d="M242.9,112.5c0,2.8-0.4,5.3-1.3,7.6c-0.8,2.3-2,4.2-3.5,5.8s-3.3,2.9-5.4,3.7s-4.5,1.3-7,1.3c-2.5,0-4.9-0.4-7-1.3
		c-2.1-0.9-3.9-2.1-5.4-3.7s-2.7-3.6-3.5-5.8c-0.8-2.3-1.3-4.8-1.3-7.6c0-2.8,0.4-5.3,1.3-7.6c0.8-2.3,2-4.2,3.5-5.8
		c1.5-1.6,3.3-2.9,5.4-3.7c2.1-0.9,4.4-1.3,7-1.3c2.6,0,4.9,0.4,7,1.3c2.1,0.9,3.9,2.1,5.4,3.7c1.5,1.6,2.7,3.6,3.5,5.8
		S242.9,109.7,242.9,112.5z M240.1,112.5c0-2.5-0.3-4.8-1-6.8c-0.7-2-1.7-3.7-3-5.1c-1.3-1.4-2.8-2.5-4.6-3.2
		c-1.8-0.7-3.8-1.1-6-1.1c-2.1,0-4.1,0.4-5.9,1.1s-3.3,1.8-4.6,3.2c-1.3,1.4-2.3,3.1-3,5.1c-0.7,2-1.1,4.3-1.1,6.8
		c0,2.5,0.4,4.8,1.1,6.8c0.7,2,1.7,3.7,3,5.1c1.3,1.4,2.8,2.5,4.6,3.2s3.7,1.1,5.9,1.1c2.2,0,4.2-0.4,6-1.1c1.8-0.7,3.3-1.8,4.6-3.2
		c1.3-1.4,2.3-3.1,3-5.1C239.8,117.3,240.1,115,240.1,112.5z"/>
	<path d="M62.7,218.2v-51.7h14.9c2.9,0,5.5,0.3,7.6,0.9s3.9,1.4,5.3,2.6c1.4,1.1,2.5,2.5,3.2,4.1c0.7,1.6,1,3.5,1,5.5
		c0,1.4-0.2,2.7-0.7,3.9c-0.5,1.3-1.2,2.4-2.1,3.5c-0.9,1.1-2,2-3.3,2.8c-1.3,0.8-2.8,1.4-4.5,1.8c4.1,0.6,7.2,2,9.4,4.1
		c2.2,2.1,3.3,4.9,3.3,8.3c0,2.2-0.4,4.2-1.2,5.9c-0.8,1.8-1.9,3.2-3.4,4.5c-1.5,1.2-3.3,2.1-5.5,2.8c-2.2,0.6-4.6,1-7.4,1H62.7z
		 M66.5,190.7h11.2c2.4,0,4.4-0.3,6.1-0.9c1.7-0.6,3.1-1.4,4.2-2.4c1.1-1,1.9-2.1,2.4-3.4c0.5-1.3,0.8-2.6,0.8-3.9
		c0-3.5-1.1-6.1-3.3-7.9c-2.2-1.8-5.6-2.7-10.2-2.7H66.5V190.7z M66.5,193.4v21.8h13c4.6,0,8-1,10.3-2.9c2.3-2,3.5-4.7,3.5-8.3
		c0-1.6-0.3-3.1-0.9-4.4s-1.5-2.4-2.7-3.3c-1.2-0.9-2.6-1.6-4.3-2.1c-1.7-0.5-3.6-0.7-5.8-0.7H66.5z"/>
	<path d="M134.4,218.2h-2c-0.2,0-0.4-0.1-0.6-0.2s-0.3-0.3-0.4-0.5l-4.3-10.5h-17.8l-4.2,10.5c-0.1,0.2-0.2,0.3-0.4,0.5
		c-0.2,0.1-0.4,0.2-0.6,0.2h-2L117,182h2.6L134.4,218.2z M110.2,205h16.2l-7.4-18.3c-0.1-0.3-0.2-0.6-0.4-1
		c-0.1-0.4-0.2-0.8-0.4-1.2c-0.1,0.4-0.2,0.8-0.4,1.2s-0.2,0.7-0.4,1L110.2,205z"/>
	<path d="M157.7,186.4c-0.2,0.3-0.4,0.4-0.7,0.4c-0.2,0-0.5-0.2-0.9-0.5s-0.8-0.7-1.4-1c-0.6-0.4-1.3-0.7-2.2-1.1
		c-0.9-0.3-2-0.5-3.3-0.5s-2.5,0.2-3.5,0.6c-1,0.4-1.8,0.9-2.5,1.5c-0.7,0.6-1.2,1.4-1.5,2.2c-0.4,0.9-0.5,1.7-0.5,2.7
		c0,1.2,0.3,2.2,0.8,3c0.5,0.8,1.2,1.5,2.1,2s1.8,1,2.9,1.4c1.1,0.4,2.2,0.8,3.3,1.1c1.1,0.4,2.3,0.8,3.3,1.2s2.1,1,2.9,1.7
		c0.9,0.7,1.5,1.5,2.1,2.5c0.5,1,0.8,2.2,0.8,3.7c0,1.5-0.3,2.9-0.8,4.3c-0.5,1.3-1.3,2.5-2.3,3.5s-2.2,1.8-3.6,2.3
		s-3.1,0.9-4.9,0.9c-2.4,0-4.4-0.4-6.2-1.3c-1.7-0.8-3.2-2-4.5-3.5l0.7-1.1c0.2-0.3,0.4-0.4,0.7-0.4c0.2,0,0.3,0.1,0.6,0.3
		s0.5,0.5,0.9,0.8c0.3,0.3,0.8,0.6,1.2,1c0.5,0.3,1,0.7,1.7,1c0.6,0.3,1.4,0.5,2.2,0.8c0.8,0.2,1.7,0.3,2.8,0.3
		c1.4,0,2.7-0.2,3.8-0.7s2.1-1,2.9-1.8c0.8-0.8,1.4-1.6,1.8-2.7c0.4-1,0.6-2.1,0.6-3.3c0-1.3-0.3-2.3-0.8-3.2s-1.2-1.5-2.1-2.1
		c-0.9-0.6-1.8-1-2.9-1.4c-1.1-0.4-2.2-0.7-3.3-1.1c-1.1-0.4-2.3-0.8-3.3-1.2c-1.1-0.4-2.1-1-2.9-1.7c-0.9-0.7-1.5-1.5-2.1-2.6
		c-0.5-1-0.8-2.3-0.8-3.9c0-1.2,0.2-2.4,0.7-3.5c0.5-1.1,1.1-2.1,2-3s2-1.5,3.3-2.1c1.3-0.5,2.8-0.8,4.5-0.8c1.9,0,3.6,0.3,5.1,0.9
		c1.5,0.6,2.9,1.5,4.1,2.7L157.7,186.4z"/>
	<path d="M190.5,182v2.2h-12.7v33.9h-2.6v-33.9h-12.8V182H190.5z"/>
	<path d="M221,218.2h-2c-0.2,0-0.4-0.1-0.6-0.2s-0.3-0.3-0.4-0.5l-4.3-10.5H196l-4.2,10.5c-0.1,0.2-0.2,0.3-0.4,0.5
		c-0.2,0.1-0.4,0.2-0.6,0.2h-2l14.8-36.2h2.6L221,218.2z M196.8,205H213l-7.4-18.3c-0.1-0.3-0.2-0.6-0.4-1s-0.2-0.8-0.4-1.2
		c-0.1,0.4-0.2,0.8-0.4,1.2c-0.1,0.4-0.2,0.7-0.4,1L196.8,205z"/>
	<path d="M229.8,215.4c0-0.5,0.1-0.9,0.3-1.3c0.2-0.4,0.4-0.8,0.7-1.1c0.3-0.3,0.7-0.5,1.1-0.7c0.4-0.2,0.8-0.3,1.3-0.3
		c0.5,0,0.9,0.1,1.3,0.3c0.4,0.2,0.8,0.4,1.1,0.7c0.3,0.3,0.5,0.7,0.7,1.1s0.3,0.9,0.3,1.3c0,0.5-0.1,0.9-0.3,1.3s-0.4,0.8-0.7,1.1
		c-0.3,0.3-0.7,0.5-1.1,0.7c-0.4,0.2-0.9,0.3-1.3,0.3c-0.9,0-1.7-0.3-2.4-1S229.8,216.3,229.8,215.4z M235,166.5v20.9
		c0,1.1,0,2.1,0,3.1c0,1-0.1,2-0.1,3c0,1-0.1,2.1-0.2,3.2c-0.1,1.1-0.1,2.4-0.2,3.7h-2.4c-0.1-1.4-0.1-2.6-0.2-3.7
		c-0.1-1.1-0.1-2.2-0.2-3.2c0-1-0.1-2-0.1-3c0-1,0-2,0-3.1v-20.9H235z"/>
</g>
</svg>
