<?xml version="1.0" encoding="utf-8"?>
<!-- Generator: Adobe Illustrator 22.0.1, SVG Export Plug-In . SVG Version: 6.00 Build 0)  -->
<svg version="1.1" id="Capa_1" xmlns="http://www.w3.org/2000/svg" xmlns:xlink="http://www.w3.org/1999/xlink" x="0px" y="0px"
	 viewBox="0 0 300 300" style="enable-background:new 0 0 300 300;" xml:space="preserve">
<style type="text/css">
	.st0{fill:none;stroke:#00C4A9;stroke-width:6;stroke-miterlimit:10;}
</style>
<rect x="21" y="21" class="st0" width="258" height="258"/>
<g>
	<path d="M78.7,135c0,2-0.3,3.8-0.9,5.4s-1.4,3-2.5,4.1c-1.1,1.1-2.4,2-3.9,2.6c-1.5,0.6-3.2,0.9-5,0.9h-9.5V122h9.5
		c1.8,0,3.5,0.3,5,0.9c1.5,0.6,2.8,1.5,3.9,2.6c1.1,1.1,1.9,2.5,2.5,4.1C78.4,131.2,78.7,133,78.7,135z M76.7,135
		c0-1.8-0.3-3.4-0.8-4.8c-0.5-1.4-1.2-2.6-2.1-3.6c-0.9-1-2-1.7-3.3-2.2s-2.7-0.8-4.3-0.8h-7.6v22.9h7.6c1.6,0,3-0.3,4.3-0.8
		c1.3-0.5,2.4-1.3,3.3-2.2c0.9-1,1.6-2.2,2.1-3.6S76.7,136.8,76.7,135z"/>
	<path d="M88.4,125.3l-3.7,2.8c-0.1,0.1-0.2,0.1-0.2,0.1c-0.1,0-0.2,0-0.3,0h-0.9l2.9-2.6c0.1-0.1,0.2-0.2,0.3-0.2s0.3-0.1,0.5-0.1
		H88.4z M85.4,148H84v-18.2h1.3V148z"/>
	<path d="M104.9,148h-1c-0.1,0-0.2,0-0.3-0.1c-0.1-0.1-0.1-0.1-0.2-0.3l-2.1-5.3h-8.9l-2.1,5.3c0,0.1-0.1,0.2-0.2,0.2
		c-0.1,0.1-0.2,0.1-0.3,0.1h-1l7.4-18.2h1.3L104.9,148z M92.7,141.4h8.1l-3.7-9.2c-0.1-0.1-0.1-0.3-0.2-0.5
		c-0.1-0.2-0.1-0.4-0.2-0.6c-0.1,0.2-0.1,0.4-0.2,0.6c-0.1,0.2-0.1,0.4-0.2,0.5L92.7,141.4z"/>
	<path d="M128.5,148h-1c-0.1,0-0.2,0-0.3-0.1c-0.1-0.1-0.1-0.1-0.2-0.3l-2.1-5.3H116l-2.1,5.3c0,0.1-0.1,0.2-0.2,0.2
		c-0.1,0.1-0.2,0.1-0.3,0.1h-1l7.4-18.2h1.3L128.5,148z M116.4,141.4h8.1l-3.7-9.2c-0.1-0.1-0.1-0.3-0.2-0.5
		c-0.1-0.2-0.1-0.4-0.2-0.6c-0.1,0.2-0.1,0.4-0.2,0.6c-0.1,0.2-0.1,0.4-0.2,0.5L116.4,141.4z"/>
	<path d="M153.7,138.9c0,1.4-0.2,2.7-0.6,3.8c-0.4,1.1-1,2.1-1.8,2.9s-1.7,1.4-2.7,1.8c-1.1,0.4-2.2,0.6-3.5,0.6h-6.6v-18.2h6.6
		c1.3,0,2.5,0.2,3.5,0.6c1.1,0.4,2,1,2.7,1.8s1.4,1.7,1.8,2.9C153.5,136.2,153.7,137.5,153.7,138.9z M152.4,138.9
		c0-1.3-0.2-2.4-0.5-3.4c-0.4-1-0.8-1.8-1.5-2.5c-0.6-0.7-1.4-1.2-2.3-1.6c-0.9-0.4-1.9-0.5-3-0.5h-5.3v16h5.3c1.1,0,2.1-0.2,3-0.5
		c0.9-0.4,1.7-0.9,2.3-1.6c0.6-0.7,1.1-1.5,1.5-2.5C152.2,141.3,152.4,140.2,152.4,138.9z"/>
	<path d="M162.8,125.3l-3.7,2.8c-0.1,0.1-0.2,0.1-0.2,0.1c-0.1,0-0.2,0-0.3,0h-0.9l2.9-2.6c0.1-0.1,0.2-0.2,0.3-0.2
		c0.1,0,0.3-0.1,0.5-0.1H162.8z M159.8,148h-1.3v-18.2h1.3V148z"/>
	<path d="M179.3,148h-1c-0.1,0-0.2,0-0.3-0.1c-0.1-0.1-0.1-0.1-0.2-0.3l-2.1-5.3h-8.9l-2.1,5.3c0,0.1-0.1,0.2-0.2,0.2
		c-0.1,0.1-0.2,0.1-0.3,0.1h-1l7.4-18.2h1.3L179.3,148z M167.2,141.4h8.1l-3.7-9.2c-0.1-0.1-0.1-0.3-0.2-0.5
		c-0.1-0.2-0.1-0.4-0.2-0.6c-0.1,0.2-0.1,0.4-0.2,0.6c-0.1,0.2-0.1,0.4-0.2,0.5L167.2,141.4z"/>
	<path d="M202.4,144.9c0.1,0,0.2,0,0.2,0.1l0.5,0.6c-0.4,0.4-0.8,0.8-1.2,1.1c-0.4,0.3-0.9,0.6-1.5,0.8c-0.5,0.2-1.1,0.4-1.7,0.5
		s-1.3,0.2-2.1,0.2c-1.3,0-2.4-0.2-3.5-0.7s-1.9-1.1-2.7-1.9c-0.7-0.8-1.3-1.8-1.8-2.9s-0.6-2.4-0.6-3.8c0-1.4,0.2-2.6,0.6-3.8
		c0.4-1.1,1-2.1,1.8-2.9c0.8-0.8,1.7-1.4,2.8-1.9s2.3-0.7,3.6-0.7c0.7,0,1.3,0,1.8,0.1c0.5,0.1,1.1,0.2,1.5,0.4
		c0.5,0.2,0.9,0.4,1.3,0.7c0.4,0.3,0.8,0.6,1.2,0.9l-0.4,0.6c-0.1,0.1-0.2,0.2-0.3,0.2c-0.1,0-0.2,0-0.3-0.1
		c-0.1-0.1-0.3-0.2-0.5-0.3c-0.2-0.1-0.4-0.3-0.7-0.4s-0.6-0.3-0.9-0.4c-0.4-0.1-0.8-0.2-1.2-0.3s-1-0.1-1.6-0.1
		c-1.1,0-2.1,0.2-3,0.6s-1.7,0.9-2.4,1.6c-0.7,0.7-1.2,1.6-1.6,2.6c-0.4,1-0.6,2.1-0.6,3.4c0,1.3,0.2,2.4,0.6,3.4
		c0.4,1,0.9,1.9,1.5,2.6c0.7,0.7,1.4,1.2,2.3,1.6c0.9,0.4,1.8,0.6,2.9,0.6c0.6,0,1.2,0,1.7-0.1c0.5-0.1,1-0.2,1.4-0.4
		c0.4-0.2,0.8-0.4,1.2-0.6c0.4-0.2,0.7-0.5,1.1-0.9c0,0,0.1-0.1,0.1-0.1C202.3,144.9,202.4,144.9,202.4,144.9z"/>
	<path d="M223.5,138.9c0,1.4-0.2,2.7-0.6,3.8c-0.4,1.1-1,2.1-1.8,2.9c-0.8,0.8-1.7,1.4-2.7,1.9c-1.1,0.4-2.2,0.7-3.5,0.7
		c-1.3,0-2.4-0.2-3.5-0.7c-1.1-0.4-2-1.1-2.7-1.9c-0.8-0.8-1.4-1.8-1.8-2.9c-0.4-1.1-0.6-2.4-0.6-3.8c0-1.4,0.2-2.7,0.6-3.8
		c0.4-1.1,1-2.1,1.8-2.9c0.8-0.8,1.7-1.4,2.7-1.9c1.1-0.4,2.2-0.7,3.5-0.7c1.3,0,2.5,0.2,3.5,0.7s2,1.1,2.7,1.9
		c0.8,0.8,1.4,1.8,1.8,2.9C223.3,136.2,223.5,137.5,223.5,138.9z M222.1,138.9c0-1.3-0.2-2.4-0.5-3.4c-0.4-1-0.8-1.9-1.5-2.6
		c-0.6-0.7-1.4-1.2-2.3-1.6c-0.9-0.4-1.9-0.6-3-0.6c-1.1,0-2.1,0.2-3,0.6c-0.9,0.4-1.7,0.9-2.3,1.6c-0.6,0.7-1.1,1.6-1.5,2.6
		c-0.4,1-0.5,2.1-0.5,3.4c0,1.3,0.2,2.4,0.5,3.4c0.4,1,0.9,1.9,1.5,2.6c0.6,0.7,1.4,1.2,2.3,1.6c0.9,0.4,1.9,0.6,3,0.6
		c1.1,0,2.1-0.2,3-0.6c0.9-0.4,1.7-0.9,2.3-1.6c0.6-0.7,1.1-1.6,1.5-2.6S222.1,140.2,222.1,138.9z"/>
	<path d="M228.7,129.9c0.1,0,0.1,0.1,0.2,0.2l11.8,15.7c0-0.3,0-0.5,0-0.7v-15.2h1.2V148h-0.6c-0.2,0-0.4-0.1-0.5-0.3L228.9,132
		c0,0.3,0,0.5,0,0.7V148h-1.1v-18.2h0.6C228.5,129.8,228.6,129.8,228.7,129.9z"/>
	<path d="M39.3,159.5v1.1h-9.6v7.3h8v1.1h-8v7.6h9.6v1.1H28.4v-18.2H39.3z"/>
	<path d="M44.9,176.6h8.6v1.1h-9.9v-18.2h1.3V176.6z"/>
	<path d="M83.8,173.3c0.1,0,0.2,0,0.3,0.1l0.7,0.8c-0.5,0.6-1.1,1.1-1.8,1.5c-0.6,0.5-1.3,0.8-2.1,1.2c-0.8,0.3-1.6,0.6-2.5,0.8
		s-1.9,0.3-3,0.3c-1.8,0-3.4-0.3-4.9-0.9c-1.5-0.6-2.8-1.5-3.8-2.7c-1.1-1.2-1.9-2.6-2.5-4.2c-0.6-1.6-0.9-3.5-0.9-5.5
		c0-2,0.3-3.8,0.9-5.4c0.6-1.6,1.5-3,2.6-4.2c1.1-1.2,2.5-2.1,4-2.7s3.3-1,5.2-1c0.9,0,1.8,0.1,2.6,0.2c0.8,0.1,1.5,0.3,2.2,0.6
		s1.3,0.6,1.9,1c0.6,0.4,1.2,0.8,1.8,1.4l-0.6,0.8c-0.1,0.1-0.3,0.2-0.5,0.2c-0.1,0-0.3-0.1-0.4-0.2c-0.2-0.1-0.4-0.3-0.7-0.5
		s-0.6-0.4-1-0.6c-0.4-0.2-0.8-0.4-1.3-0.6s-1.1-0.3-1.8-0.5c-0.7-0.1-1.4-0.2-2.3-0.2c-1.6,0-3,0.3-4.3,0.8s-2.5,1.3-3.4,2.3
		c-1,1-1.7,2.2-2.2,3.7c-0.5,1.4-0.8,3-0.8,4.8c0,1.8,0.3,3.5,0.8,4.9c0.5,1.4,1.3,2.7,2.2,3.7s2,1.8,3.3,2.3
		c1.3,0.5,2.6,0.8,4.1,0.8c0.9,0,1.8-0.1,2.5-0.2s1.4-0.3,2-0.5c0.6-0.2,1.2-0.5,1.7-0.9s1-0.8,1.6-1.2c0.1,0,0.1-0.1,0.2-0.1
		C83.7,173.3,83.7,173.3,83.8,173.3z"/>
	<path d="M103.6,177.7h-1.3V169H90.9v8.7h-1.3v-18.2h1.3v8.5h11.4v-8.5h1.3V177.7z"/>
	<path d="M119.9,159.5v1.1h-9.6v7.3h8v1.1h-8v7.6h9.6v1.1H109v-18.2H119.9z"/>
	<path d="M135,159.5v1.1h-9.6v7.6h8.3v1.1h-8.3v8.3h-1.3v-18.2H135z"/>
	<path d="M170.2,164.7c0,2-0.3,3.8-0.9,5.5c-0.6,1.6-1.4,3-2.5,4.2c-1.1,1.2-2.4,2-3.9,2.7c-1.5,0.6-3.2,0.9-5,0.9
		c-1.8,0-3.5-0.3-5-0.9c-1.5-0.6-2.8-1.5-3.9-2.7c-1.1-1.2-1.9-2.5-2.5-4.2c-0.6-1.6-0.9-3.4-0.9-5.5c0-2,0.3-3.8,0.9-5.4
		c0.6-1.6,1.5-3,2.5-4.2c1.1-1.2,2.4-2,3.9-2.7c1.5-0.6,3.2-1,5-1c1.8,0,3.5,0.3,5,0.9c1.5,0.6,2.8,1.5,3.9,2.7
		c1.1,1.2,1.9,2.6,2.5,4.2C169.9,160.9,170.2,162.7,170.2,164.7z M168.3,164.7c0-1.8-0.3-3.4-0.8-4.9c-0.5-1.4-1.2-2.7-2.1-3.7
		s-2-1.8-3.3-2.3c-1.3-0.5-2.7-0.8-4.3-0.8c-1.5,0-2.9,0.3-4.2,0.8c-1.3,0.5-2.4,1.3-3.3,2.3c-0.9,1-1.6,2.2-2.1,3.7
		c-0.5,1.4-0.8,3.1-0.8,4.9c0,1.8,0.3,3.4,0.8,4.9c0.5,1.4,1.2,2.7,2.1,3.7c0.9,1,2,1.8,3.3,2.3c1.3,0.5,2.7,0.8,4.2,0.8
		c1.6,0,3-0.3,4.3-0.8s2.4-1.3,3.3-2.3s1.6-2.2,2.1-3.7C168,168.1,168.3,166.5,168.3,164.7z"/>
	<path d="M176.8,169.5v8.2h-1.3v-18.2h4.6c2.1,0,3.7,0.4,4.7,1.2c1,0.8,1.6,2,1.6,3.6c0,0.7-0.1,1.3-0.4,1.9c-0.2,0.6-0.6,1.1-1,1.5
		c-0.4,0.4-1,0.8-1.6,1.1c-0.6,0.3-1.3,0.5-2.1,0.5c0.2,0.1,0.4,0.3,0.6,0.5l6.2,7.9h-1.1c-0.1,0-0.3,0-0.4-0.1
		c-0.1-0.1-0.2-0.1-0.3-0.3l-5.8-7.4c-0.1-0.2-0.3-0.3-0.5-0.4s-0.4-0.1-0.8-0.1H176.8z M176.8,168.5h3.2c0.8,0,1.5-0.1,2.2-0.3
		c0.6-0.2,1.2-0.5,1.6-0.8s0.8-0.8,1-1.3c0.2-0.5,0.3-1.1,0.3-1.7c0-1.3-0.4-2.3-1.3-2.9c-0.8-0.6-2.1-0.9-3.7-0.9h-3.3V168.5z"/>
	<path d="M207,168.6c0,1.4-0.2,2.7-0.6,3.8c-0.4,1.1-1,2.1-1.8,2.9c-0.8,0.8-1.7,1.4-2.7,1.9c-1.1,0.4-2.2,0.7-3.5,0.7
		c-1.3,0-2.4-0.2-3.5-0.7c-1.1-0.4-2-1.1-2.7-1.9c-0.8-0.8-1.4-1.8-1.8-2.9c-0.4-1.1-0.6-2.4-0.6-3.8c0-1.4,0.2-2.7,0.6-3.8
		c0.4-1.1,1-2.1,1.8-2.9c0.8-0.8,1.7-1.4,2.7-1.9c1.1-0.4,2.2-0.7,3.5-0.7c1.3,0,2.5,0.2,3.5,0.7s2,1.1,2.7,1.9
		c0.8,0.8,1.4,1.8,1.8,2.9C206.8,165.9,207,167.2,207,168.6z M205.6,168.6c0-1.3-0.2-2.4-0.5-3.4c-0.4-1-0.8-1.9-1.5-2.6
		c-0.6-0.7-1.4-1.2-2.3-1.6c-0.9-0.4-1.9-0.6-3-0.6c-1.1,0-2.1,0.2-3,0.6c-0.9,0.4-1.7,0.9-2.3,1.6c-0.6,0.7-1.1,1.6-1.5,2.6
		c-0.4,1-0.5,2.1-0.5,3.4c0,1.3,0.2,2.4,0.5,3.4c0.4,1,0.9,1.9,1.5,2.6c0.6,0.7,1.4,1.2,2.3,1.6c0.9,0.4,1.9,0.6,3,0.6
		c1.1,0,2.1-0.2,3-0.6c0.9-0.4,1.7-0.9,2.3-1.6c0.6-0.7,1.1-1.6,1.5-2.6S205.6,169.9,205.6,168.6z"/>
	<path d="M213,170.4v7.3h-1.3v-18.2h4.7c2.1,0,3.7,0.5,4.8,1.4c1.1,0.9,1.6,2.3,1.6,4c0,0.8-0.1,1.5-0.4,2.2
		c-0.3,0.7-0.7,1.2-1.3,1.7c-0.6,0.5-1.2,0.9-2,1.1c-0.8,0.3-1.7,0.4-2.7,0.4H213z M213,169.3h3.4c0.8,0,1.5-0.1,2.2-0.3
		c0.6-0.2,1.2-0.5,1.6-0.9c0.4-0.4,0.8-0.9,1-1.4c0.2-0.5,0.4-1.1,0.4-1.8c0-1.4-0.4-2.5-1.3-3.2c-0.9-0.8-2.1-1.1-3.8-1.1H213
		V169.3z"/>
	<path d="M237.4,159.5v1.1h-9.6v7.3h8v1.1h-8v7.6h9.6v1.1h-10.9v-18.2H237.4z"/>
	<path d="M253.9,159.5v0.4c0,0.2-0.1,0.4-0.2,0.5l-11.5,16.1h11.6v1.1h-13.3v-0.5c0-0.2,0.1-0.3,0.2-0.5l11.5-16.1h-11.4v-1.1H253.9
		z"/>
	<path d="M271.6,177.7h-1c-0.1,0-0.2,0-0.3-0.1c-0.1-0.1-0.1-0.1-0.2-0.3l-2.1-5.3H259l-2.1,5.3c0,0.1-0.1,0.2-0.2,0.2
		c-0.1,0.1-0.2,0.1-0.3,0.1h-1l7.4-18.2h1.3L271.6,177.7z M259.4,171.1h8.1l-3.7-9.2c-0.1-0.1-0.1-0.3-0.2-0.5
		c-0.1-0.2-0.1-0.4-0.2-0.6c-0.1,0.2-0.1,0.4-0.2,0.6c-0.1,0.2-0.1,0.4-0.2,0.5L259.4,171.1z"/>
</g>
</svg>
