<?xml version="1.0" encoding="utf-8"?>
<!-- Generator: Adobe Illustrator 22.0.1, SVG Export Plug-In . SVG Version: 6.00 Build 0)  -->
<svg version="1.1" id="Capa_1" xmlns="http://www.w3.org/2000/svg" xmlns:xlink="http://www.w3.org/1999/xlink" x="0px" y="0px"
	 viewBox="0 0 300 300" style="enable-background:new 0 0 300 300;" xml:space="preserve">
<style type="text/css">
	.st0{fill:none;stroke:#00C4A9;stroke-width:6;stroke-miterlimit:10;}
</style>
<rect x="21" y="21" class="st0" width="258" height="258"/>
<g>
	<path d="M49.1,170.7H73v3.1H45.5v-50.4h3.6V170.7z"/>
	<path d="M106.2,173.8h-2c-0.2,0-0.4-0.1-0.6-0.2c-0.1-0.1-0.3-0.3-0.3-0.5l-4.2-10.2H81.8l-4.1,10.2c-0.1,0.2-0.2,0.3-0.3,0.5
		s-0.4,0.2-0.6,0.2h-1.9l14.4-35.3h2.5L106.2,173.8z M82.6,161h15.8l-7.2-17.8c-0.1-0.3-0.2-0.6-0.3-1c-0.1-0.4-0.2-0.7-0.3-1.1
		c-0.1,0.4-0.2,0.8-0.3,1.1c-0.1,0.4-0.2,0.7-0.3,1L82.6,161z"/>
	<path d="M170.1,148.6c0,3.9-0.6,7.4-1.7,10.5c-1.2,3.1-2.8,5.8-4.9,7.9c-2.1,2.2-4.6,3.9-7.6,5c-2.9,1.2-6.2,1.7-9.8,1.7h-18.4
		v-50.4h18.4c3.6,0,6.8,0.6,9.8,1.7c2.9,1.2,5.5,2.8,7.6,5c2.1,2.2,3.7,4.8,4.9,7.9C169.6,141.2,170.1,144.7,170.1,148.6z
		 M166.4,148.6c0-3.5-0.5-6.6-1.5-9.4c-1-2.8-2.3-5.1-4.1-7c-1.8-1.9-3.9-3.3-6.4-4.3c-2.5-1-5.3-1.5-8.3-1.5h-14.7v44.5h14.7
		c3,0,5.8-0.5,8.3-1.5c2.5-1,4.6-2.4,6.4-4.3s3.1-4.2,4.1-7C165.9,155.2,166.4,152.1,166.4,148.6z"/>
	<path d="M206.1,173.8h-2c-0.2,0-0.4-0.1-0.6-0.2c-0.1-0.1-0.3-0.3-0.3-0.5l-4.2-10.2h-17.3l-4.1,10.2c-0.1,0.2-0.2,0.3-0.3,0.5
		s-0.4,0.2-0.6,0.2h-1.9l14.4-35.3h2.5L206.1,173.8z M182.5,161h15.8l-7.2-17.8c-0.1-0.3-0.2-0.6-0.3-1c-0.1-0.4-0.2-0.7-0.3-1.1
		c-0.1,0.4-0.2,0.8-0.3,1.1c-0.1,0.4-0.2,0.7-0.3,1L182.5,161z"/>
	<path d="M231.9,138.5v2.2h-12.4v33.1H217v-33.1h-12.5v-2.2H231.9z"/>
	<path d="M261.7,173.8h-2c-0.2,0-0.4-0.1-0.6-0.2c-0.1-0.1-0.3-0.3-0.3-0.5l-4.2-10.2h-17.3l-4.1,10.2c-0.1,0.2-0.2,0.3-0.3,0.5
		s-0.4,0.2-0.6,0.2h-1.9l14.4-35.3h2.5L261.7,173.8z M238.1,161h15.8l-7.2-17.8c-0.1-0.3-0.2-0.6-0.3-1c-0.1-0.4-0.2-0.7-0.3-1.1
		c-0.1,0.4-0.2,0.8-0.3,1.1c-0.1,0.4-0.2,0.7-0.3,1L238.1,161z"/>
</g>
</svg>
