<?xml version="1.0" encoding="utf-8"?>
<!-- Generator: Adobe Illustrator 22.0.1, SVG Export Plug-In . SVG Version: 6.00 Build 0)  -->
<svg version="1.1" id="Capa_1" xmlns="http://www.w3.org/2000/svg" xmlns:xlink="http://www.w3.org/1999/xlink" x="0px" y="0px"
	 viewBox="0 0 300 300" style="enable-background:new 0 0 300 300;" xml:space="preserve">
<style type="text/css">
	.st0{fill:none;stroke:#00C4A9;stroke-width:6;stroke-miterlimit:10;}
</style>
<rect x="21" y="21" class="st0" width="258" height="258"/>
<g>
	<path d="M54.7,132.8h18.6v2.4H51.9V95.9h2.8V132.8z"/>
	<path d="M99.2,135.2h-1.5c-0.2,0-0.3,0-0.4-0.1s-0.2-0.2-0.3-0.4l-3.2-8H80.2l-3.2,8c-0.1,0.1-0.1,0.3-0.3,0.4
		c-0.1,0.1-0.3,0.2-0.5,0.2h-1.5L86,107.7h2L99.2,135.2z M80.8,125.2h12.3l-5.6-13.9c-0.1-0.2-0.2-0.5-0.3-0.7
		c-0.1-0.3-0.2-0.6-0.3-0.9c-0.1,0.3-0.2,0.6-0.3,0.9c-0.1,0.3-0.2,0.5-0.3,0.8L80.8,125.2z"/>
	<path d="M119.7,117.4v17.8h-2.8V95.9h10c4.5,0,7.9,0.9,10.2,2.6s3.4,4.3,3.4,7.7c0,1.5-0.3,2.9-0.8,4.1c-0.5,1.2-1.3,2.3-2.2,3.3
		c-1,0.9-2.1,1.7-3.5,2.3c-1.4,0.6-2.9,1-4.6,1.2c0.4,0.3,0.8,0.6,1.2,1.1l13.5,17h-2.5c-0.3,0-0.6-0.1-0.8-0.2
		c-0.2-0.1-0.4-0.3-0.6-0.6l-12.6-15.9c-0.3-0.4-0.7-0.7-1-0.9c-0.4-0.2-0.9-0.3-1.7-0.3H119.7z M119.7,115.3h6.8
		c1.7,0,3.3-0.2,4.7-0.6c1.4-0.4,2.5-1,3.5-1.8c1-0.8,1.7-1.7,2.2-2.8c0.5-1.1,0.8-2.3,0.8-3.7c0-2.8-0.9-4.9-2.7-6.2
		c-1.8-1.4-4.5-2-8-2h-7.2V115.3z"/>
	<path d="M170,135.2h-1.5c-0.2,0-0.3,0-0.4-0.1c-0.1-0.1-0.2-0.2-0.3-0.4l-3.2-8H151l-3.2,8c-0.1,0.1-0.1,0.3-0.3,0.4
		c-0.1,0.1-0.3,0.2-0.5,0.2h-1.5l11.3-27.5h2L170,135.2z M151.6,125.2H164l-5.6-13.9c-0.1-0.2-0.2-0.5-0.3-0.7
		c-0.1-0.3-0.2-0.6-0.3-0.9c-0.1,0.3-0.2,0.6-0.3,0.9c-0.1,0.3-0.2,0.5-0.3,0.8L151.6,125.2z"/>
	<path d="M192.9,107.7v0.7c0,0.3-0.1,0.5-0.3,0.8l-17.5,24.4h17.6v1.7h-20.2v-0.7c0-0.2,0.1-0.5,0.2-0.7l17.5-24.4h-17.2v-1.7H192.9
		z"/>
	<path d="M222.2,121.5c0,2.1-0.3,4.1-1,5.8c-0.6,1.7-1.5,3.2-2.7,4.4c-1.2,1.2-2.5,2.2-4.1,2.8c-1.6,0.7-3.4,1-5.3,1
		c-1.9,0-3.7-0.3-5.3-1c-1.6-0.7-3-1.6-4.1-2.8s-2.1-2.7-2.7-4.4s-1-3.7-1-5.8c0-2.1,0.3-4,1-5.8c0.6-1.7,1.5-3.2,2.7-4.4
		s2.5-2.2,4.1-2.8c1.6-0.7,3.4-1,5.3-1c2,0,3.7,0.3,5.3,1c1.6,0.7,3,1.6,4.1,2.8c1.2,1.2,2,2.7,2.7,4.4
		C221.9,117.4,222.2,119.3,222.2,121.5z M220.1,121.5c0-1.9-0.3-3.6-0.8-5.2c-0.5-1.5-1.3-2.8-2.2-3.9c-1-1.1-2.1-1.9-3.5-2.4
		c-1.4-0.6-2.9-0.8-4.5-0.8c-1.6,0-3.1,0.3-4.5,0.8c-1.4,0.6-2.5,1.4-3.5,2.4c-1,1.1-1.7,2.4-2.3,3.9c-0.5,1.5-0.8,3.3-0.8,5.2
		c0,1.9,0.3,3.7,0.8,5.2c0.5,1.5,1.3,2.8,2.3,3.9c1,1.1,2.1,1.9,3.5,2.4s2.8,0.8,4.5,0.8c1.7,0,3.2-0.3,4.5-0.8
		c1.4-0.6,2.5-1.4,3.5-2.4c1-1.1,1.7-2.4,2.2-3.9S220.1,123.4,220.1,121.5z M214.7,100.8L209,105c-0.1,0.1-0.2,0.2-0.4,0.2
		c-0.1,0-0.2,0-0.4,0h-1.4l4.4-4c0.2-0.2,0.4-0.3,0.5-0.3c0.2-0.1,0.4-0.1,0.7-0.1H214.7z"/>
	<path d="M230.1,107.8c0.1,0,0.2,0.1,0.3,0.3l17.8,23.8c0-0.4-0.1-0.8-0.1-1.1v-23.1h1.8v27.5h-1c-0.3,0-0.5-0.1-0.7-0.4L230.3,111
		c0,0.4,0.1,0.8,0.1,1.1v23.2h-1.7v-27.5h1C229.8,107.7,230,107.7,230.1,107.8z"/>
	<path d="M62.2,188.1c0,2.1-0.3,4-1,5.7c-0.6,1.7-1.5,3.1-2.7,4.3c-1.2,1.2-2.5,2.1-4.1,2.7s-3.4,1-5.3,1h-10v-27.5h10
		c2,0,3.7,0.3,5.3,1s3,1.5,4.1,2.7c1.2,1.2,2,2.6,2.7,4.3C61.9,184.1,62.2,186,62.2,188.1z M60.2,188.1c0-1.9-0.3-3.6-0.8-5.1
		c-0.5-1.5-1.3-2.8-2.2-3.8c-1-1-2.1-1.8-3.5-2.4c-1.4-0.5-2.9-0.8-4.5-0.8h-8v24.3h8c1.7,0,3.2-0.3,4.5-0.8
		c1.4-0.5,2.5-1.3,3.5-2.4c1-1,1.7-2.3,2.2-3.8C59.9,191.8,60.2,190,60.2,188.1z"/>
	<path d="M85.1,174.4v1.7H70.6v11.1h12.1v1.6H70.6v11.5h14.5v1.7H68.6v-27.5H85.1z"/>
	<path d="M123.7,192.1c0.1-0.3,0.2-0.6,0.3-0.9c0.1-0.3,0.3-0.6,0.4-0.8l15.4-27.3c0.1-0.2,0.3-0.4,0.4-0.4c0.1-0.1,0.4-0.1,0.6-0.1
		h2v39.3h-2.5v-33.5c0-0.5,0-1,0.1-1.5L125,194.3c-0.3,0.5-0.6,0.7-1.1,0.7h-0.4c-0.5,0-0.8-0.2-1.1-0.7l-15.9-27.5
		c0.1,0.5,0.1,1.1,0.1,1.6v33.5h-2.5v-39.3h1.9c0.3,0,0.5,0,0.6,0.1c0.2,0.1,0.3,0.2,0.5,0.4l15.9,27.3
		C123.2,190.9,123.5,191.5,123.7,192.1z"/>
	<path d="M169.3,174.4v1.7h-14.5v11.1h12.1v1.6h-12.1v11.5h14.5v1.7h-16.5v-27.5H169.3z M166.9,167.5l-5.7,4.2
		c-0.1,0.1-0.3,0.2-0.4,0.2c-0.1,0-0.2,0-0.4,0h-1.4l4.4-4c0.2-0.2,0.3-0.3,0.5-0.3c0.2-0.1,0.4-0.1,0.7-0.1H166.9z"/>
	<path d="M182,187.8l-9.5-13.4h2c0.2,0,0.3,0,0.4,0.1c0.1,0.1,0.2,0.2,0.2,0.3l8.4,12.1c0-0.1,0.1-0.2,0.1-0.3
		c0-0.1,0.1-0.2,0.2-0.3l8.1-11.4c0.1-0.1,0.2-0.2,0.3-0.3s0.2-0.1,0.3-0.1h1.9l-9.5,13.3l9.9,14.2h-2c-0.2,0-0.3-0.1-0.4-0.2
		s-0.2-0.2-0.3-0.3l-8.7-12.7c-0.1,0.2-0.1,0.4-0.3,0.6l-8.5,12.1c-0.1,0.1-0.2,0.2-0.3,0.3c-0.1,0.1-0.3,0.2-0.4,0.2H172L182,187.8
		z"/>
	<path d="M201.8,201.9h-2v-27.5h2V201.9z"/>
	<path d="M230.7,197.2c0.1,0,0.2,0,0.3,0.1l0.8,0.8c-0.6,0.6-1.2,1.2-1.9,1.6c-0.7,0.5-1.4,0.9-2.2,1.2c-0.8,0.3-1.7,0.6-2.6,0.8
		s-2,0.3-3.1,0.3c-1.9,0-3.7-0.3-5.2-1c-1.6-0.7-2.9-1.6-4.1-2.8s-2-2.7-2.7-4.4c-0.6-1.7-1-3.7-1-5.8c0-2.1,0.3-4,1-5.7
		c0.7-1.7,1.6-3.2,2.8-4.4c1.2-1.2,2.6-2.2,4.3-2.9s3.5-1,5.5-1c1,0,1.9,0.1,2.7,0.2c0.8,0.1,1.6,0.4,2.3,0.6c0.7,0.3,1.4,0.6,2,1
		s1.3,0.9,1.9,1.4l-0.6,0.9c-0.1,0.2-0.3,0.2-0.5,0.2c-0.1,0-0.3-0.1-0.4-0.2c-0.2-0.1-0.4-0.3-0.7-0.5c-0.3-0.2-0.6-0.4-1-0.7
		c-0.4-0.2-0.9-0.5-1.4-0.7c-0.5-0.2-1.2-0.4-1.9-0.5c-0.7-0.1-1.5-0.2-2.4-0.2c-1.7,0-3.2,0.3-4.6,0.9c-1.4,0.6-2.6,1.4-3.6,2.5
		s-1.8,2.4-2.4,3.9c-0.6,1.5-0.8,3.2-0.8,5.1c0,1.9,0.3,3.7,0.8,5.2c0.6,1.5,1.3,2.8,2.3,3.9c1,1.1,2.1,1.9,3.5,2.4
		c1.3,0.6,2.8,0.8,4.4,0.8c1,0,1.9-0.1,2.6-0.2c0.8-0.1,1.5-0.3,2.1-0.6c0.6-0.3,1.3-0.6,1.8-1c0.6-0.4,1.1-0.8,1.7-1.3
		c0.1-0.1,0.1-0.1,0.2-0.1S230.6,197.2,230.7,197.2z"/>
	<path d="M262.6,188.1c0,2.1-0.3,4.1-1,5.8c-0.6,1.7-1.5,3.2-2.7,4.4c-1.2,1.2-2.5,2.2-4.1,2.8c-1.6,0.7-3.4,1-5.3,1
		c-1.9,0-3.7-0.3-5.3-1c-1.6-0.7-3-1.6-4.1-2.8s-2.1-2.7-2.7-4.4c-0.6-1.7-1-3.7-1-5.8c0-2.1,0.3-4,1-5.8s1.5-3.2,2.7-4.4
		c1.2-1.2,2.5-2.2,4.1-2.8c1.6-0.7,3.4-1,5.3-1c2,0,3.7,0.3,5.3,1c1.6,0.7,3,1.6,4.1,2.8c1.2,1.2,2,2.7,2.7,4.4
		C262.3,184.1,262.6,186,262.6,188.1z M260.5,188.1c0-1.9-0.3-3.6-0.8-5.2s-1.3-2.8-2.2-3.9c-1-1.1-2.1-1.9-3.5-2.4
		c-1.4-0.6-2.9-0.8-4.5-0.8c-1.6,0-3.1,0.3-4.5,0.8c-1.4,0.6-2.5,1.4-3.5,2.4s-1.7,2.4-2.3,3.9c-0.5,1.5-0.8,3.3-0.8,5.2
		c0,1.9,0.3,3.7,0.8,5.2c0.5,1.5,1.3,2.8,2.3,3.9s2.1,1.9,3.5,2.4c1.4,0.6,2.8,0.8,4.5,0.8c1.7,0,3.2-0.3,4.5-0.8
		c1.4-0.6,2.5-1.4,3.5-2.4c1-1.1,1.7-2.4,2.2-3.9C260.3,191.8,260.5,190,260.5,188.1z"/>
</g>
</svg>
