<?xml version="1.0" encoding="utf-8"?>
<!-- Generator: Adobe Illustrator 22.0.1, SVG Export Plug-In . SVG Version: 6.00 Build 0)  -->
<svg version="1.1" id="Capa_1" xmlns="http://www.w3.org/2000/svg" xmlns:xlink="http://www.w3.org/1999/xlink" x="0px" y="0px"
	 viewBox="0 0 300 300" style="enable-background:new 0 0 300 300;" xml:space="preserve">
<style type="text/css">
	.st0{fill:none;stroke:#00C4A9;stroke-width:6;stroke-miterlimit:10;}
</style>
<rect x="21" y="21" class="st0" width="258" height="258"/>
<g>
	<path d="M49.7,151.5v8.9h-1.6v-22h5.7c2.6,0,4.5,0.6,5.8,1.7c1.3,1.1,2,2.7,2,4.8c0,1-0.2,1.9-0.5,2.7c-0.4,0.8-0.9,1.5-1.5,2.1
		c-0.7,0.6-1.5,1-2.5,1.4s-2.1,0.5-3.3,0.5H49.7z M49.7,150.2h4.1c1,0,1.8-0.1,2.6-0.4c0.8-0.3,1.4-0.6,2-1.1s0.9-1,1.2-1.7
		c0.3-0.6,0.4-1.4,0.4-2.1c0-1.7-0.5-3-1.6-3.9c-1-0.9-2.6-1.4-4.7-1.4h-4.1V150.2z"/>
	<path d="M66.6,153.4v7h-1.1V145h3.9c1.8,0,3.1,0.3,4,1s1.3,1.7,1.3,3c0,0.6-0.1,1.1-0.3,1.6c-0.2,0.5-0.5,0.9-0.9,1.3
		s-0.8,0.7-1.4,0.9s-1.1,0.4-1.8,0.5c0.2,0.1,0.3,0.3,0.5,0.4l5.3,6.7h-1c-0.1,0-0.2,0-0.3-0.1c-0.1,0-0.2-0.1-0.2-0.2l-4.9-6.3
		c-0.1-0.2-0.3-0.3-0.4-0.3c-0.1-0.1-0.4-0.1-0.7-0.1H66.6z M66.6,152.6h2.7c0.7,0,1.3-0.1,1.8-0.2s1-0.4,1.4-0.7
		c0.4-0.3,0.7-0.7,0.9-1.1s0.3-0.9,0.3-1.4c0-1.1-0.4-1.9-1.1-2.4s-1.8-0.8-3.1-0.8h-2.8V152.6z"/>
	<path d="M92.2,152.7c0,1.2-0.2,2.3-0.5,3.2s-0.9,1.8-1.5,2.5s-1.4,1.2-2.3,1.6c-0.9,0.4-1.9,0.6-3,0.6c-1.1,0-2.1-0.2-3-0.6
		c-0.9-0.4-1.7-0.9-2.3-1.6c-0.6-0.7-1.1-1.5-1.5-2.5c-0.4-1-0.5-2.1-0.5-3.2c0-1.2,0.2-2.3,0.5-3.2c0.4-1,0.9-1.8,1.5-2.5
		c0.6-0.7,1.4-1.2,2.3-1.6s1.9-0.6,3-0.6c1.1,0,2.1,0.2,3,0.6s1.7,0.9,2.3,1.6s1.1,1.5,1.5,2.5S92.2,151.5,92.2,152.7z M91,152.7
		c0-1.1-0.1-2-0.4-2.9s-0.7-1.6-1.3-2.2s-1.2-1.1-2-1.4s-1.6-0.5-2.5-0.5c-0.9,0-1.8,0.2-2.5,0.5c-0.8,0.3-1.4,0.8-2,1.4
		c-0.5,0.6-1,1.3-1.3,2.2c-0.3,0.9-0.5,1.8-0.5,2.9c0,1.1,0.2,2.1,0.5,2.9c0.3,0.9,0.7,1.6,1.3,2.2c0.5,0.6,1.2,1,2,1.4
		c0.8,0.3,1.6,0.5,2.5,0.5c0.9,0,1.8-0.2,2.5-0.5s1.4-0.8,2-1.4s1-1.3,1.3-2.2S91,153.8,91,152.7z"/>
	<path d="M97.2,154.2v6.2h-1.1V145h4c1.8,0,3.2,0.4,4.1,1.2c0.9,0.8,1.4,1.9,1.4,3.4c0,0.7-0.1,1.3-0.4,1.9
		c-0.3,0.6-0.6,1.1-1.1,1.5s-1,0.7-1.7,1c-0.7,0.2-1.4,0.3-2.3,0.3H97.2z M97.2,153.3h2.9c0.7,0,1.3-0.1,1.8-0.3
		c0.5-0.2,1-0.5,1.4-0.8s0.7-0.7,0.9-1.2s0.3-1,0.3-1.5c0-1.2-0.4-2.1-1.1-2.7c-0.7-0.6-1.8-1-3.3-1h-2.9V153.3z"/>
	<path d="M110.3,160.4h-1.1V145h1.1V160.4z"/>
	<path d="M124.5,145v0.9h-8.1v6.2h6.8v0.9h-6.8v6.4h8.1v0.9h-9.2V145H124.5z"/>
	<path d="M141.1,152.7c0,1.2-0.2,2.3-0.5,3.2c-0.4,1-0.9,1.8-1.5,2.4c-0.6,0.7-1.4,1.2-2.3,1.5c-0.9,0.4-1.9,0.5-3,0.5h-5.6V145h5.6
		c1.1,0,2.1,0.2,3,0.5c0.9,0.4,1.7,0.9,2.3,1.5c0.6,0.7,1.1,1.5,1.5,2.4C140.9,150.4,141.1,151.5,141.1,152.7z M140,152.7
		c0-1.1-0.1-2-0.4-2.9c-0.3-0.8-0.7-1.6-1.3-2.1c-0.5-0.6-1.2-1-2-1.3c-0.8-0.3-1.6-0.5-2.5-0.5h-4.5v13.6h4.5
		c0.9,0,1.8-0.2,2.5-0.5c0.8-0.3,1.4-0.7,2-1.3c0.5-0.6,1-1.3,1.3-2.1C139.8,154.7,140,153.8,140,152.7z"/>
	<path d="M156,160.4h-0.9c-0.1,0-0.2,0-0.3-0.1c-0.1-0.1-0.1-0.1-0.2-0.2l-1.8-4.5h-7.6l-1.8,4.5c0,0.1-0.1,0.1-0.2,0.2
		c-0.1,0.1-0.2,0.1-0.3,0.1h-0.9l6.3-15.4h1.1L156,160.4z M145.7,154.8h6.9l-3.1-7.8c-0.1-0.1-0.1-0.3-0.2-0.4s-0.1-0.3-0.2-0.5
		c-0.1,0.2-0.1,0.3-0.2,0.5s-0.1,0.3-0.2,0.4L145.7,154.8z"/>
	<path d="M171.4,152.7c0,1.2-0.2,2.3-0.5,3.2c-0.4,1-0.9,1.8-1.5,2.4c-0.6,0.7-1.4,1.2-2.3,1.5c-0.9,0.4-1.9,0.5-3,0.5h-5.6V145h5.6
		c1.1,0,2.1,0.2,3,0.5c0.9,0.4,1.7,0.9,2.3,1.5c0.6,0.7,1.1,1.5,1.5,2.4C171.2,150.4,171.4,151.5,171.4,152.7z M170.2,152.7
		c0-1.1-0.1-2-0.4-2.9c-0.3-0.8-0.7-1.6-1.3-2.1c-0.5-0.6-1.2-1-2-1.3c-0.8-0.3-1.6-0.5-2.5-0.5h-4.5v13.6h4.5
		c0.9,0,1.8-0.2,2.5-0.5c0.8-0.3,1.4-0.7,2-1.3c0.5-0.6,1-1.3,1.3-2.1C170.1,154.7,170.2,153.8,170.2,152.7z"/>
	<path d="M184.2,145v0.9h-8.1v6.2h6.8v0.9h-6.8v6.4h8.1v0.9H175V145H184.2z"/>
	<path d="M195.3,146.8c-0.1,0.1-0.2,0.2-0.3,0.2c-0.1,0-0.2-0.1-0.4-0.2c-0.1-0.1-0.4-0.3-0.6-0.4c-0.3-0.2-0.6-0.3-1-0.5
		s-0.9-0.2-1.4-0.2c-0.6,0-1.1,0.1-1.5,0.2c-0.4,0.2-0.8,0.4-1.1,0.7s-0.5,0.6-0.7,1s-0.2,0.7-0.2,1.1c0,0.5,0.1,1,0.3,1.3
		c0.2,0.3,0.5,0.6,0.9,0.9c0.4,0.2,0.8,0.4,1.2,0.6c0.5,0.2,0.9,0.3,1.4,0.5c0.5,0.2,1,0.3,1.4,0.5c0.5,0.2,0.9,0.4,1.2,0.7
		c0.4,0.3,0.7,0.6,0.9,1.1c0.2,0.4,0.3,1,0.3,1.6c0,0.6-0.1,1.3-0.3,1.8s-0.5,1.1-1,1.5c-0.4,0.4-0.9,0.8-1.5,1
		c-0.6,0.2-1.3,0.4-2.1,0.4c-1,0-1.9-0.2-2.6-0.5c-0.7-0.4-1.4-0.9-1.9-1.5l0.3-0.5c0.1-0.1,0.2-0.2,0.3-0.2c0.1,0,0.1,0,0.3,0.1
		c0.1,0.1,0.2,0.2,0.4,0.3s0.3,0.3,0.5,0.4c0.2,0.1,0.4,0.3,0.7,0.4c0.3,0.1,0.6,0.2,0.9,0.3s0.7,0.1,1.2,0.1c0.6,0,1.2-0.1,1.6-0.3
		c0.5-0.2,0.9-0.4,1.2-0.8c0.3-0.3,0.6-0.7,0.8-1.1s0.3-0.9,0.3-1.4c0-0.5-0.1-1-0.3-1.3c-0.2-0.4-0.5-0.6-0.9-0.9
		c-0.4-0.2-0.8-0.4-1.2-0.6c-0.5-0.2-0.9-0.3-1.4-0.5c-0.5-0.2-1-0.3-1.4-0.5c-0.5-0.2-0.9-0.4-1.2-0.7c-0.4-0.3-0.7-0.7-0.9-1.1
		s-0.3-1-0.3-1.7c0-0.5,0.1-1,0.3-1.5s0.5-0.9,0.9-1.3c0.4-0.4,0.8-0.7,1.4-0.9c0.6-0.2,1.2-0.3,1.9-0.3c0.8,0,1.5,0.1,2.2,0.4
		c0.6,0.3,1.2,0.6,1.7,1.2L195.3,146.8z"/>
	<path d="M198.6,159.2c0-0.2,0-0.4,0.1-0.6c0.1-0.2,0.2-0.3,0.3-0.5s0.3-0.2,0.5-0.3c0.2-0.1,0.4-0.1,0.6-0.1c0.2,0,0.4,0,0.6,0.1
		c0.2,0.1,0.3,0.2,0.5,0.3c0.1,0.1,0.2,0.3,0.3,0.5c0.1,0.2,0.1,0.4,0.1,0.6c0,0.2,0,0.4-0.1,0.6c-0.1,0.2-0.2,0.3-0.3,0.5
		c-0.1,0.1-0.3,0.2-0.5,0.3c-0.2,0.1-0.4,0.1-0.6,0.1c-0.4,0-0.7-0.1-1-0.4C198.7,159.9,198.6,159.6,198.6,159.2z"/>
	<path d="M216.6,157.8c0.1,0,0.1,0,0.2,0.1l0.4,0.5c-0.3,0.3-0.7,0.6-1,0.9s-0.8,0.5-1.2,0.7c-0.4,0.2-0.9,0.3-1.5,0.4
		c-0.5,0.1-1.1,0.2-1.8,0.2c-1.1,0-2-0.2-2.9-0.6s-1.7-0.9-2.3-1.6s-1.1-1.5-1.5-2.5c-0.4-1-0.5-2.1-0.5-3.2c0-1.2,0.2-2.2,0.5-3.2
		c0.4-1,0.9-1.8,1.5-2.5c0.7-0.7,1.5-1.2,2.4-1.6c0.9-0.4,1.9-0.6,3.1-0.6c0.6,0,1.1,0,1.5,0.1c0.5,0.1,0.9,0.2,1.3,0.4
		c0.4,0.2,0.8,0.4,1.1,0.6c0.4,0.2,0.7,0.5,1,0.8l-0.3,0.5c-0.1,0.1-0.1,0.1-0.3,0.1c-0.1,0-0.1,0-0.3-0.1s-0.2-0.2-0.4-0.3
		c-0.2-0.1-0.3-0.2-0.6-0.4c-0.2-0.1-0.5-0.3-0.8-0.4s-0.7-0.2-1.1-0.3c-0.4-0.1-0.9-0.1-1.4-0.1c-0.9,0-1.8,0.2-2.6,0.5
		c-0.8,0.3-1.5,0.8-2,1.4c-0.6,0.6-1,1.3-1.3,2.2c-0.3,0.9-0.5,1.8-0.5,2.9c0,1.1,0.2,2.1,0.5,2.9s0.7,1.6,1.3,2.2s1.2,1,2,1.4
		s1.6,0.5,2.4,0.5c0.6,0,1,0,1.5-0.1c0.4-0.1,0.8-0.2,1.2-0.3s0.7-0.3,1-0.5c0.3-0.2,0.6-0.5,0.9-0.7c0,0,0.1-0.1,0.1-0.1
		C216.5,157.8,216.6,157.8,216.6,157.8z"/>
	<path d="M234.5,152.7c0,1.2-0.2,2.3-0.5,3.2c-0.4,1-0.9,1.8-1.5,2.5s-1.4,1.2-2.3,1.6c-0.9,0.4-1.9,0.6-3,0.6c-1.1,0-2.1-0.2-3-0.6
		c-0.9-0.4-1.7-0.9-2.3-1.6s-1.1-1.5-1.5-2.5s-0.5-2.1-0.5-3.2c0-1.2,0.2-2.3,0.5-3.2s0.9-1.8,1.5-2.5s1.4-1.2,2.3-1.6
		c0.9-0.4,1.9-0.6,3-0.6c1.1,0,2.1,0.2,3,0.6c0.9,0.4,1.7,0.9,2.3,1.6s1.1,1.5,1.5,2.5C234.3,150.4,234.5,151.5,234.5,152.7z
		 M233.3,152.7c0-1.1-0.1-2-0.4-2.9s-0.7-1.6-1.3-2.2c-0.5-0.6-1.2-1.1-2-1.4c-0.8-0.3-1.6-0.5-2.5-0.5c-0.9,0-1.8,0.2-2.5,0.5
		c-0.8,0.3-1.4,0.8-2,1.4c-0.5,0.6-1,1.3-1.3,2.2c-0.3,0.9-0.5,1.8-0.5,2.9c0,1.1,0.2,2.1,0.5,2.9c0.3,0.9,0.7,1.6,1.3,2.2
		c0.5,0.6,1.2,1,2,1.4c0.8,0.3,1.6,0.5,2.5,0.5c0.9,0,1.8-0.2,2.5-0.5c0.8-0.3,1.4-0.8,2-1.4c0.5-0.6,1-1.3,1.3-2.2
		S233.3,153.8,233.3,152.7z"/>
	<path d="M245.8,156.6c0-0.1,0.1-0.2,0.1-0.3c0-0.1,0.1-0.2,0.2-0.3l6.1-10.7c0.1-0.1,0.1-0.2,0.2-0.2c0.1,0,0.1,0,0.2,0h0.8v15.4
		h-1v-13.1c0-0.2,0-0.4,0-0.6l-6.1,10.8c-0.1,0.2-0.2,0.3-0.4,0.3h-0.2c-0.2,0-0.3-0.1-0.4-0.3l-6.2-10.8c0,0.2,0,0.4,0,0.6v13.1h-1
		V145h0.8c0.1,0,0.2,0,0.2,0c0.1,0,0.1,0.1,0.2,0.2l6.2,10.7C245.6,156.1,245.7,156.3,245.8,156.6z"/>
</g>
</svg>
