<?xml version="1.0" encoding="utf-8"?>
<!-- Generator: Adobe Illustrator 22.0.1, SVG Export Plug-In . SVG Version: 6.00 Build 0)  -->
<svg version="1.1" id="Capa_1" xmlns="http://www.w3.org/2000/svg" xmlns:xlink="http://www.w3.org/1999/xlink" x="0px" y="0px"
	 viewBox="0 0 300 300" style="enable-background:new 0 0 300 300;" xml:space="preserve">
<style type="text/css">
	.st0{fill:none;stroke:#00C4A9;stroke-width:6;stroke-miterlimit:10;}
</style>
<rect x="21" y="21" class="st0" width="258" height="258"/>
<g>
	<path d="M59.9,134.4c-0.2,0.3-0.4,0.5-0.7,0.5c-0.2,0-0.5-0.2-0.9-0.5c-0.4-0.3-0.9-0.7-1.5-1.1c-0.6-0.4-1.4-0.8-2.4-1.1
		c-1-0.3-2.1-0.5-3.5-0.5c-1.4,0-2.6,0.2-3.7,0.6c-1.1,0.4-1.9,0.9-2.7,1.6c-0.7,0.7-1.3,1.5-1.6,2.4c-0.4,0.9-0.6,1.9-0.6,2.8
		c0,1.3,0.3,2.4,0.8,3.2c0.6,0.8,1.3,1.6,2.2,2.2c0.9,0.6,1.9,1.1,3.1,1.5c1.1,0.4,2.3,0.8,3.5,1.2c1.2,0.4,2.4,0.8,3.5,1.3
		c1.1,0.5,2.2,1.1,3.1,1.8s1.6,1.6,2.2,2.7c0.6,1.1,0.8,2.4,0.8,3.9c0,1.6-0.3,3.1-0.8,4.5c-0.6,1.4-1.4,2.7-2.4,3.7
		c-1,1-2.3,1.9-3.8,2.5s-3.3,0.9-5.2,0.9c-2.5,0-4.7-0.4-6.5-1.3c-1.8-0.9-3.4-2.1-4.8-3.7l0.8-1.2c0.2-0.3,0.5-0.4,0.8-0.4
		c0.2,0,0.4,0.1,0.6,0.3s0.6,0.5,0.9,0.8c0.4,0.3,0.8,0.7,1.3,1c0.5,0.4,1.1,0.7,1.8,1c0.7,0.3,1.4,0.6,2.3,0.8
		c0.9,0.2,1.9,0.3,3,0.3c1.5,0,2.9-0.2,4.1-0.7c1.2-0.5,2.2-1.1,3-1.9c0.8-0.8,1.5-1.7,1.9-2.8c0.4-1.1,0.7-2.3,0.7-3.5
		c0-1.4-0.3-2.5-0.8-3.3c-0.6-0.9-1.3-1.6-2.2-2.2s-1.9-1.1-3.1-1.5c-1.1-0.4-2.3-0.8-3.5-1.2c-1.2-0.4-2.4-0.8-3.5-1.3
		c-1.1-0.5-2.2-1.1-3.1-1.8c-0.9-0.7-1.6-1.6-2.2-2.7c-0.6-1.1-0.8-2.5-0.8-4.1c0-1.3,0.2-2.5,0.7-3.7s1.2-2.2,2.1-3.2
		c0.9-0.9,2.1-1.6,3.5-2.2c1.4-0.6,3-0.8,4.7-0.8c2,0,3.8,0.3,5.4,0.9c1.6,0.6,3,1.6,4.3,2.9L59.9,134.4z"/>
	<path d="M85.5,141.3v1.7h-9.4v25.2h-1.9v-25.2h-9.5v-1.7H85.5z"/>
	<path d="M92.6,156v12.1h-1.9v-26.9h6.9c3.1,0,5.4,0.6,6.9,1.8c1.5,1.2,2.3,3,2.3,5.3c0,1-0.2,2-0.5,2.8c-0.4,0.8-0.9,1.6-1.5,2.2
		c-0.7,0.6-1.5,1.2-2.4,1.6s-2,0.7-3.2,0.8c0.3,0.2,0.6,0.4,0.8,0.8l9.2,11.6h-1.7c-0.2,0-0.4,0-0.5-0.1c-0.1-0.1-0.3-0.2-0.4-0.4
		L98,156.7c-0.2-0.3-0.4-0.5-0.7-0.6c-0.2-0.1-0.6-0.2-1.1-0.2H92.6z M92.6,154.5h4.7c1.2,0,2.3-0.1,3.2-0.4s1.7-0.7,2.4-1.2
		c0.7-0.5,1.1-1.2,1.5-1.9c0.3-0.7,0.5-1.6,0.5-2.5c0-1.9-0.6-3.3-1.9-4.3s-3.1-1.4-5.5-1.4h-4.9V154.5z"/>
	<path d="M134.3,168.1h-1.5c-0.2,0-0.3,0-0.4-0.1c-0.1-0.1-0.2-0.2-0.3-0.4l-3.2-7.8h-13.2l-3.1,7.8c-0.1,0.1-0.1,0.3-0.3,0.4
		c-0.1,0.1-0.3,0.2-0.5,0.2h-1.5l11-26.9h1.9L134.3,168.1z M116.3,158.3h12l-5.5-13.6c-0.1-0.2-0.2-0.5-0.3-0.7
		c-0.1-0.3-0.2-0.6-0.3-0.9c-0.1,0.3-0.2,0.6-0.3,0.9c-0.1,0.3-0.2,0.5-0.3,0.7L116.3,158.3z"/>
	<path d="M153.9,141.3v1.7h-9.4v25.2h-1.9v-25.2H133v-1.7H153.9z"/>
	<path d="M174.6,141.3v1.6h-14.1v10.9h11.8v1.6h-11.8v11.2h14.1v1.6h-16.1v-26.9H174.6z"/>
	<path d="M192.5,166.8c0.9,0,1.8,0,2.5-0.1c0.8-0.1,1.5-0.2,2.1-0.4c0.7-0.2,1.3-0.4,1.9-0.7c0.6-0.3,1.2-0.6,1.8-0.9v-7.2h-5.2
		c-0.1,0-0.3,0-0.4-0.1c-0.1-0.1-0.1-0.2-0.1-0.3v-1.1h7.4v9.5c-0.7,0.5-1.4,0.9-2.1,1.3c-0.7,0.4-1.5,0.7-2.3,0.9s-1.7,0.4-2.7,0.6
		c-0.9,0.1-2,0.2-3.1,0.2c-1.9,0-3.7-0.3-5.3-1c-1.6-0.7-3-1.6-4.1-2.8c-1.1-1.2-2-2.6-2.7-4.3c-0.6-1.7-0.9-3.6-0.9-5.7
		c0-2.1,0.3-4,0.9-5.6s1.5-3.1,2.7-4.3c1.2-1.2,2.6-2.1,4.2-2.8c1.7-0.7,3.5-1,5.6-1c1,0,2,0.1,2.8,0.2c0.9,0.1,1.7,0.3,2.4,0.6
		c0.7,0.3,1.4,0.6,2.1,1s1.3,0.9,1.9,1.4l-0.5,0.8c-0.1,0.2-0.3,0.3-0.5,0.3c-0.1,0-0.2,0-0.3-0.1c-0.2-0.1-0.5-0.3-0.8-0.5
		s-0.8-0.6-1.5-0.9c-0.6-0.3-1.4-0.6-2.3-0.8c-0.9-0.2-2-0.4-3.4-0.4c-1.7,0-3.3,0.3-4.7,0.8s-2.6,1.4-3.6,2.4c-1,1-1.8,2.3-2.3,3.8
		c-0.5,1.5-0.8,3.2-0.8,5c0,1.9,0.3,3.6,0.8,5.1s1.3,2.8,2.3,3.8s2.2,1.8,3.5,2.4C189.3,166.6,190.9,166.8,192.5,166.8z"/>
	<path d="M222.8,161.4c0.1-0.2,0.2-0.4,0.2-0.6c0.1-0.2,0.2-0.4,0.3-0.6l10.6-18.7c0.1-0.2,0.2-0.3,0.3-0.3c0.1,0,0.2-0.1,0.4-0.1
		h1.3v26.9h-1.7v-22.9c0-0.3,0-0.7,0.1-1l-10.6,18.8c-0.2,0.3-0.4,0.5-0.8,0.5h-0.3c-0.3,0-0.6-0.2-0.8-0.5L211,144.2
		c0,0.4,0.1,0.7,0.1,1.1v22.9h-1.7v-26.9h1.3c0.2,0,0.3,0,0.4,0.1c0.1,0,0.2,0.1,0.3,0.3l10.8,18.7
		C222.5,160.6,222.6,161,222.8,161.4z"/>
	<path d="M264.1,168.1h-1.5c-0.2,0-0.3,0-0.4-0.1c-0.1-0.1-0.2-0.2-0.3-0.4l-3.2-7.8h-13.2l-3.1,7.8c-0.1,0.1-0.1,0.3-0.3,0.4
		c-0.1,0.1-0.3,0.2-0.5,0.2h-1.5l11-26.9h1.9L264.1,168.1z M246.1,158.3h12l-5.5-13.6c-0.1-0.2-0.2-0.5-0.3-0.7
		c-0.1-0.3-0.2-0.6-0.3-0.9c-0.1,0.3-0.2,0.6-0.3,0.9c-0.1,0.3-0.2,0.5-0.3,0.7L246.1,158.3z"/>
</g>
</svg>
